<svg xmlns="http://www.w3.org/2000/svg" width="228.907" height="263.282" viewBox="0 0 228.907 263.282">
  <g id="Group_11" data-name="Group 11" transform="translate(-228.911 -955.9)">
    <path id="Path_73" data-name="Path 73" d="M360.9,1120.5c-4.8-1.3-9.4-2.6-14-3.9l-33.3-9.3c-7.3-2.1-12.3-6.4-13.6-14.2a23.714,23.714,0,0,1,2.7-15c7.7-15,15.3-30.1,23-45.1.4-.7.7-1.5,1.2-2.5-2.6-.4-5.1-.7-7.5-1-8.8-1.2-17.6-2.3-26.4-3.4a4.939,4.939,0,0,0-2.4.5c-11.6,5.1-23.2,10.2-34.7,15.4a13.85,13.85,0,0,1-8.5,1.3,9.388,9.388,0,0,1-5.8-14.7,14.581,14.581,0,0,1,4.8-4.1q19.8-10.65,39.8-21.1c3.3-1.7,6.8-1.8,10.4-1.5,14.4,1.1,28.8,2.1,43.2,3.1,6.4.5,12.8.7,19.1,1.6a31.4,31.4,0,0,1,18.6,10c7.7,8.2,8.7,18.8,2.3,28.1-3.5,5-7.6,9.6-11.4,14.3-6,7.3-12.1,14.6-18.1,21.9a13.19,13.19,0,0,0-1.2,1.6c.6.3,1.1.5,1.6.7,12,4.4,24.1,8.7,36.2,13.1,6.3,2.3,10.5,6.4,11.1,13.4a17.8,17.8,0,0,1-3.6,12c-14.9,19.9-29.7,39.7-44.7,59.5-3,4-7.1,6.5-12.4,5.9a11.282,11.282,0,0,1-9.8-14.6,19.6,19.6,0,0,1,2.9-6c9.8-14.8,19.7-29.4,29.6-44.1A6.629,6.629,0,0,1,360.9,1120.5Z"/>
    <path id="Path_74" data-name="Path 74" d="M294.5,1101.6a68.6,68.6,0,0,0,4.8,5.9,21.3,21.3,0,0,0,9.4,5.2c4.9,1.4,9.7,2.7,14.6,4.1a14.247,14.247,0,0,1,1.6.5,14.238,14.238,0,0,0-.5,1.6c-5,12.7-10,25.4-14.9,38.2a25.162,25.162,0,0,1-7.1,10c-8.6,7.6-16.9,15.6-25.4,23.4-8.7,8.1-17.4,16.1-26.2,24.2-3.5,3.2-7.5,5.1-12.3,4.3a11.3,11.3,0,0,1-8.6-15.8,18.648,18.648,0,0,1,3.9-5.7c14.9-15.5,30-30.9,44.9-46.3a6.909,6.909,0,0,0,1.7-3Q287.45,1124.8,294.5,1101.6Z"/>
    <path id="Path_75" data-name="Path 75" d="M391.3,1009.4a26.75,26.75,0,1,1,26.8-26.7A26.759,26.759,0,0,1,391.3,1009.4Z"/>
    <path id="Path_76" data-name="Path 76" d="M389.8,1028.2c7.3,7,14.1,13.7,21.1,20.4,6.7-4,13.3-8,19.9-12,3.5-2.1,7-4.3,10.5-6.4a12.382,12.382,0,0,1,8.4-1.9,9.318,9.318,0,0,1,6.8,14,15.172,15.172,0,0,1-4.4,4.7c-12.2,8.7-24.4,17.2-36.7,25.8-4.1,2.8-8.4,2.8-12.7.7a16.942,16.942,0,0,1-3.6-2.3c-6.3-5.3-12.5-10.6-18.8-15.9l-.7-.7C386.4,1047.3,391,1039.1,389.8,1028.2Z"/>
  </g>
</svg>
