<svg xmlns="http://www.w3.org/2000/svg" width="222.175" height="238.548" viewBox="0 0 222.175 238.548">
  <g id="Group_13" data-name="Group 13" transform="translate(-1215.5 -980.6)">
    <path id="Path_81" data-name="Path 81" d="M1433.4,1192.3c-7.5-8.4-15.1-16.7-22.6-25.1-8.3-9.3-16.7-18.6-25-27.9-2.2-2.4-4.3-4.9-6.6-7.4h2.2a13.615,13.615,0,0,0,3.7-26.5c-11.9-4.5-23.9-9.1-35.8-13.7a3.678,3.678,0,0,1-1.8-1.4c-4.9-10.2-9.8-20.4-14.6-30.6a2.254,2.254,0,0,1,0-1.8,23.742,23.742,0,0,0,1.7-13.9c-1.5-9.4-10.6-17.6-20-18.1-9-.5-16.1,2.8-21.2,10.4a149.724,149.724,0,0,0-18.3,39.8c-3.9,12.6-6.3,25.4-5.1,38.7.8,8.2,3,15.9,7.9,22.8,1.1,1.5,2.4,3,3.7,4.6h-60.9c-3.4,0-5.2,1.8-5.2,5.3V1214a4.413,4.413,0,0,0,4.7,4.5h8.5q59.55,0,119.1.1a4.987,4.987,0,0,0,5.2-5.2c-.1-19.9,0-39.8,0-59.7,0-.6.1-1.2.1-2.3a10.58,10.58,0,0,1,1.8,1.3q17.4,19.2,34.8,38.6c6.8,7.5,13.5,15.1,20.2,22.6a15.1,15.1,0,0,0,13.7,5.1c6.2-.8,10.7-4.2,12.9-10.1C1438.8,1202.7,1437.7,1197.1,1433.4,1192.3Zm-91.3,17H1226.2c-1.1,0-1.6-.2-1.6-1.4.1-9.7,0-19.5,0-29.2v-27.5h102.6c5.1,0,10.1.1,15.2,0,1.2,0,1.5.4,1.5,1.5v54.9C1344,1209.2,1343.4,1209.3,1342.1,1209.3Zm3.2-89.7c-8.5-.3-17-.5-25.5-.8a1.784,1.784,0,0,1-1.2-.9,66.289,66.289,0,0,1-3.1-5.9,7.75,7.75,0,0,1-.7-3c-.2-5,1-9.8,2.2-14.6a31.824,31.824,0,0,1,.9-3.1c.7,1.5,1.3,2.6,1.9,3.8,1.9,4,3.9,7.9,5.7,11.9a14.277,14.277,0,0,0,8.6,7.9c3.8,1.4,7.7,2.9,11.5,4.4C1345.4,1119.4,1345.4,1119.5,1345.3,1119.6Z"/>
    <path id="Path_82" data-name="Path 82" d="M1330.3,1028.7c11,10.2,27.2,11.4,38-1.5,6.2-7.3,8.9-15.7,7.2-25.1-2.2-12.7-13.1-21.5-26.2-21.5a27.764,27.764,0,0,0-24.1,13.6,25.991,25.991,0,0,0-3.6,19.2A28.178,28.178,0,0,0,1330.3,1028.7Z"/>
  </g>
</svg>
