<svg xmlns="http://www.w3.org/2000/svg" width="237.085" height="331.157" viewBox="0 0 237.085 331.157">
  <g id="Group_21" data-name="Group 21" transform="translate(-1190.681 -379.003)">
    <path id="Path_47" data-name="Path 47" d="M1201.95,509.6l-1.47,4.25-3.92,15.18-8.43,11.23-5.36,4.09-15.24,2.04-14.51-6.51-3.33-6.4-3.72-.68-5.71,9.37s-7.02,4.47-7.79,4.21-9.59.77-9.59.77l-11.09-4.21-10.34-9.7-6.26-11.62-2.84-4.61-.85-6.78-3.58-3.04,3.32-3.96,4.44-2.92h16.88l5.11,1.51,6.13,2.68,3.34.64,4.19.64,2.04.89-6.23-5.49,5.08-8.3,3.06-2.55,4.09,3.45,7.65,2.55a39.839,39.839,0,0,1,3.84-1.15c.89-.13,4.6-1.53,4.98-1.66s3.32-2.17,3.32-2.17l1.66-1.66-.26,6.89,2.81,3.32,4.17,3.06,5.96-1.53,5.32-1.15h10.21l8.68,2.17,7.91,3.7Z" transform="translate(163.258 -76.37)" fill="#c50c18"/>
    <g id="Group_8" data-name="Group 8" transform="translate(163.258 -76.37)">
      <path id="Path_55" data-name="Path 55" d="M1158.17,628.55c-2.26,3-4.41,5.82-6.51,8.67-2.78,3.79-3.19,8.2-3.19,12.7a57.492,57.492,0,0,0,4.39,22.87c.25.58.54,1.14,1.06,2.21.36-1.69.62-2.86.92-4.28,1.22,3.05.73,6.49,3.43,8.98,1.23-2.5,1.45-5.35,3.48-7.34-.67,3.81-1.58,7.44-1.88,11.12-.37,4.69-1.1,9.48.34,14.12a50.35,50.35,0,0,1,1.59,7.89c.75,5.17,2.45,10.21,3.73,15.31.61,2.41,1.25,4.81,1.73,7.24a10.652,10.652,0,0,1-.2,2.77c-.37-.09-.52-.08-.55-.14-1.77-2.88-2.75-2.88-4.47.12-3.86,6.72-4.32,14-2.88,21.37a70.275,70.275,0,0,0,3.73,11.63c.47,1.22,1.89,2.88,2.92,2.9,1.68.04,1.73-2.08,2.1-3.46a20.223,20.223,0,0,1,1.05-3.75v27.05c-4.09-12.58-11.05-23.68-13.66-36.46-1.6-7.8-1.97-15.47.64-23.14a21.345,21.345,0,0,0,.68-13.25c-.65-2.23-.57-4.69-.74-7.05-.5-7.21-.87-14.42-1.47-21.62a20.352,20.352,0,0,0-1.52-5.81c-1.89-4.62-3.99-9.16-6-13.73-2.09,8.51-7.53,15.93-8.77,24.91-.83,6-1.72,11.91-.7,18.01a21.019,21.019,0,0,1-.58,7.54,17.567,17.567,0,0,0,.3,9.27c3.37,10.28,2.34,20.53-.87,30.57-2.36,7.38-5.37,14.55-8.06,21.82-1.06,2.87-2.05,5.77-3.15,8.85V758.93a1.693,1.693,0,0,1,.22.01c.51,2.09.95,4.21,1.56,6.27.2.67.87,1.7,1.28,1.68a2.56,2.56,0,0,0,1.89-1.28c1.65-4.04,3.53-8.04,4.61-12.24a30.341,30.341,0,0,0-1.26-19.86,17.475,17.475,0,0,0-2.13-3.67c-1.48-1.94-2.57-1.83-3.96.23-.12.18-.25.35-.6.86.58-9.99,6.18-18.55,5.79-28.66-.87.78-1.47,1.31-2.06,1.84a31.054,31.054,0,0,0,4.13-14.4c.21-4.98-.44-10-.72-15.16.59,1.54,1.15,3.01,1.82,4.78,2.36-2.86,1.07-6.26,2.17-9.52.63,1.69,1.14,3.06,1.73,4.67a29.217,29.217,0,0,0,4.86-11.39,58.594,58.594,0,0,0,.92-17.33,16.929,16.929,0,0,0-3.34-8.86c-2-2.68-4.04-5.33-6.14-8.09-1.47,11.02-3.25,21.8-7.74,31.89.31-5.92.66-11.84.91-17.76.27-6.52.37-13.04-.9-19.48a9.844,9.844,0,0,0-1.26-3.28,2,2,0,0,0-3.67.24c-.73,1.44-1.3,2.96-1.95,4.44-.19-.05-.39-.09-.58-.14.16-.99.31-1.99.47-2.98.31-1.99.77-3.96.89-5.96.16-2.72-.93-4.4-2.83-4.99-2.59-.79-5.45-.07-6.54,2.2a23.034,23.034,0,0,0-2.45,7.69,180.31,180.31,0,0,0-.51,18.77c2.73-5.23,4.74-10.75,9.17-14.82-8.58,17.86-9.07,35.76-.58,53.94q1.815-5,3.63-10l.24.09c-.67,3.99-1.52,7.96-1.96,11.97-.46,4.24-.04,8.41,2.73,11.98a2.293,2.293,0,0,1,.53.91,4.708,4.708,0,0,1-.09,1.23c-.36-.11-.87-.12-1.05-.36-1.67-2.28-3.29-4.58-4.89-6.91a11.528,11.528,0,0,1-.79-1.81c-.61,1.1-1.12,2.02-1.71,3.11-.7-5.29-1.24-10.32-2.06-15.31a65.781,65.781,0,0,0-2.08-7.88c-2.67-9-4.85-18.08-4.83-27.55-4.91,19.08-1.19,37.34,5.29,55.53.56-.79,1.05-1.47,1.53-2.14.11.05.22.1.32.15-.12.39-.24.78-.37,1.17a17.872,17.872,0,0,0,.42,13.35,8.244,8.244,0,0,0,8.26,5c1.45-.16,2.8-1.11,4.14-1.67a8.3,8.3,0,0,1-3.17,5.63,50.561,50.561,0,0,1-4.52,3.14c-4.05,2.55-5.66,6.3-6.25,10.96-1.26,9.88.98,19.23,3.42,28.65a87.417,87.417,0,0,1,2.51,28.09c-.36-1.18-.8-2.35-1.08-3.55-2.15-9.17-4.26-18.34-6.4-27.51-1.29-5.53-2.91-11-3.86-16.59a55.8,55.8,0,0,1,1.01-23.81,41.067,41.067,0,0,0-.92-23.77c-2.09-6.47-3.94-13.05-5.42-19.68-2.09-9.4-1.24-18.85.35-28.26,1.54-9.16,2.95-18.35,4.55-27.5a30.443,30.443,0,0,1,2.16-7.48c3.67-7.87,3.49-16.08,2.65-24.41a32.815,32.815,0,0,0-7.48-17.73c-6.25-7.7-12.08-15.68-15.33-25.1-3.29,1.02-6.39,2.19-9.58,2.92-7.12,1.63-14.11.75-21-1.52-4.94-1.62-9.96-3.02-14.93-4.53-1.59-.48-3.18-.95-4.73-1.53-6.38-2.37-9.54-7.11-9.99-13.77-.54-8.11,1.46-15.79,4.48-23.18a121.278,121.278,0,0,1,6.37-12.88,98.985,98.985,0,0,0,8.25-18.44c2.52-8.1,7.35-11.56,15.89-11.9a27.888,27.888,0,0,1,12.2,1.82,11.934,11.934,0,0,1,7.64,9.32c1.12,6.37-3.19,11.62-9.64,11.33a84.891,84.891,0,0,1-11.05-1.64c-.53-.1-.93-.97-1.54-1.65-1.09.43-1.62,1.43-1.81,2.93-.81,6.4.16,12.61,1.6,18.82.62,2.69.79,5.49,1.18,8.35-.08-.04.06.08.11.04,7.63-4.07,15.35-3.1,23.05-.33a2.639,2.639,0,0,0,3.14-.51,11.589,11.589,0,0,1,3.32-2.02c8.28-3.46,16.73-5.19,25.62-2.46a13.171,13.171,0,0,0,8.05.05c3.75-1.2,5.94-4.13,6.29-8.39.34-4.21-.61-8.24-1.6-12.28a10.872,10.872,0,0,1-.41-3.14c1.85,3.15,3.48,6.45,5.61,9.39a26.739,26.739,0,0,0,6.13,6.29,12.685,12.685,0,0,0,17.61-2.82c2.06-2.75,3.35-6.08,4.89-9.2a24.438,24.438,0,0,1,1.85-3.83c-.42,3.49-.87,6.97-1.26,10.46-.3,2.65-.61,5.3-.78,7.96-.24,3.7,2.03,6.53,5.75,6.66a29.263,29.263,0,0,0,7.9-.84,35.5,35.5,0,0,1,28.15,4.45,2.759,2.759,0,0,0,2.08.06c5.98-2.05,12.09-3.01,18.36-1.88a56.83,56.83,0,0,1,6.7,2.05c1.43-6.6,3.09-13.46,4.34-20.41.65-3.61-.88-6.81-3.63-9.57-.51,1.72-1.77,1.92-3.19,2.09-1.82.22-3.59.77-5.4,1.03a15.637,15.637,0,0,1-10.45-1.93,6.961,6.961,0,0,1-3.47-7.87,13.549,13.549,0,0,1,7-9.38,23.38,23.38,0,0,1,18.18-2.41,13.824,13.824,0,0,1,9.66,8.24c1.39,3.26,2.27,6.73,3.57,10.02a64.31,64.31,0,0,0,3.96,8.69c3.82,6.55,7.79,13.02,10.12,20.3a44.151,44.151,0,0,1,1.64,20.54,14.069,14.069,0,0,1-8.61,11.37,75.271,75.271,0,0,1-7.37,2.52c-5.24,1.68-10.47,3.41-15.75,4.96-6.26,1.83-12.55,2.18-18.89.09-3.32-1.1-5.18-.47-6.92,2.56-4.81,8.4-10.46,16.22-16.05,24.09-5.96,8.4-7.51,18.06-6.5,27.97.74,7.21,2.61,14.31,4.14,21.42,3.04,14.15,5.81,28.33,5.52,42.9a95.013,95.013,0,0,1-5.48,29.74,101.094,101.094,0,0,0-3.67,14.05c-1.03,5.26-.31,10.56,1.09,15.67,3.18,11.61,2.2,22.97-1.34,34.3-2.35,7.51-4.52,15.08-6.72,22.64-.46,1.57-.68,3.21-1.09,4.81a99.941,99.941,0,0,1,2.19-21.13c1.37-6.73,2.99-13.41,4.22-20.16a29.439,29.439,0,0,0-2.85-19.5,6.015,6.015,0,0,0-3.78-3.47c-4.67-1.23-6.3-5.44-8.74-8.86a1.52,1.52,0,0,1-.17-.68,1.642,1.642,0,0,1,.11-.5c1.2.7,2.34,1.38,3.49,2.05,3.42,1.96,5.19,1.68,7.7-1.38,3.36-4.1,3.45-8.93,2.81-13.85a32.983,32.983,0,0,1-.62-4.44c.68.85,1.36,1.7,2.28,2.84,9.52-17.97,9.22-36.68,5.62-56.11-.3.4-.44.5-.44.6-.07,8.45-2.01,16.58-4.56,24.54-2.53,7.89-3.22,15.98-3.49,24.17-.02.56-.15,1.12-.28,2.07-1.39-1.3-2.52-2.36-3.79-3.54a21.157,21.157,0,0,1-6.98,9.44l-.51-.3a6.237,6.237,0,0,1,.45-1.09c.62-.94,1.28-1.85,1.93-2.77,2.98-4.22,2.38-8.86,1.6-13.52-.46-2.74-.87-5.49-1.38-8.7,1.61,3.56,3.02,6.7,4.44,9.84.19-.03.39-.07.58-.1a12.758,12.758,0,0,0,.67-1.12,51.49,51.49,0,0,0,4.21-32.05c-1.07-5.99-2.09-11.99-3.16-18.13,3,4.77,4.27,10.17,6.42,15.32.09-1.3.2-2.6.26-3.9.3-6.46.63-12.95-.95-19.28a25.027,25.027,0,0,0-3.04-6.71,3.88,3.88,0,0,0-4.75-1.87,5.107,5.107,0,0,0-3.19,5.04c.24,2.41.73,4.79,1.12,7.19a4.274,4.274,0,0,1,.07,1.76c-1.08-1.46-2.1-2.97-3.27-4.35-1.87-2.23-3.46-2.01-4,.85a69.483,69.483,0,0,0-1.55,13.36c.06,7.93.73,15.85,1.16,23.78a7.833,7.833,0,0,1-.03,2.64,14.758,14.758,0,0,1-1.64-3.08c-1.61-6.06-3.23-12.12-4.57-18.24A102.185,102.185,0,0,1,1158.17,628.55Zm20.8-125.18c-6.17,2.49-12.37,4.91-19.01,5.61l-.24-.63c2.16-1.57,4.32-3.14,6.72-4.88-3.47-1.92-6.38-3.91-7.45-8.14-1.75,3.69-3.22,6.81-4.7,9.93-.13-.04-.27-.09-.4-.13.45-2.76.9-5.52,1.39-8.47-5.25,3.14-10.19,2.86-15.22-.46.9,2.94,1.75,5.68,2.59,8.43-.15.05-.3.1-.44.16-2.57-4.21-5.13-8.41-7.58-12.43-1.7,3.04-3.37,6.03-5.11,9.14,2.13,1.78,5.04,3.14,6.6,6.1-7.73-.29-15.09-2.22-22.37-4.42,1.04-.05,2.09-.09,3.13-.14a13.951,13.951,0,0,0-4.11-1.35c-6.9-1.18-13.63-.91-19.7,3.06-2.95,1.93-3.74,1.9-1.56,5.49a5.189,5.189,0,0,1,.29.85c-.64-.29-1.04-.51-1.46-.67-3.86-1.47-7.65-3.19-11.61-4.31a21.754,21.754,0,0,0-12.8.32c-3.23,1.05-5.79,2.77-6.61,6.48-.34,1.54-1.46,2.91-2.23,4.36-.13-.07-.25-.14-.38-.22,3.93-6.34.93-19.29-1.36-25.37-.36,1.11-.69,2.1-1.01,3.1.62-5.87,2.73-11.53,2.14-17.48l-.71-.18c-1.9,4.27-3.81,8.54-5.84,13.09-.22-.68-.5-1.09-.44-1.44,1.1-6.34,2.25-12.67,3.41-19.15a40.587,40.587,0,0,0,3.73,2.75c1.23.72,2.1.21,2.18-1.21a24.483,24.483,0,0,0-.18-3.17c.93.52,1.96,1.1,3.09,1.73a27.873,27.873,0,0,0,.94,4.6,3.086,3.086,0,0,0,2.12,1.66c1.29.17,2.05-.93,2.12-2.15a24.117,24.117,0,0,0-.21-4.24c-.21-1.75-.57-3.49-.86-5.23a2.955,2.955,0,0,1,.95,1.73c.6,2.89,1.11,5.81,1.82,8.68.18.72.98,1.28,1.5,1.91a10.155,10.155,0,0,0,2.16-2.3c.31-.62-.03-1.62-.2-2.42-.32-1.57-.77-3.11-1.07-4.67a11.751,11.751,0,0,1-.02-2.14l.45-.06c.25.88.49,1.75.75,2.63.6,2.04,1.14,4.1,1.88,6.09a1.889,1.889,0,0,0,1.57.98,2.038,2.038,0,0,0,1.14-1.54,16.77,16.77,0,0,0-.48-3.85c-.41-1.94-.93-3.85-1.4-5.77a42.94,42.94,0,0,1,2.32,4.38c.75,1.39,1.69,2.67,2.67,4.19,3.92-6.37-1.85-13.44-10.69-13.88.15.4.28.77.42,1.16-3.72-.65-7.28-1.27-10.84-1.89-.03.13-.06.27-.09.4,1.4.82,2.79,1.64,4.19,2.45-.08.16-.16.33-.24.49a39.05,39.05,0,0,1-4.3-1.51c-2.42-1.15-4.39-.52-6.4.99-3.2,2.41-4.44,5.87-4.96,9.52-1.09,7.66-4.04,14.48-7.99,21.08a96.957,96.957,0,0,0-7.07,14.88,24.082,24.082,0,0,0,.15,18.72c.2.46.38.92.63,1.51l-1.81-.58c.9,3.61,4.74,5.34,10.28,4.66-.71.41-1.2.7-1.83,1.07,7.48,5.26,14.37,2.17,21.24-1.24.12.16.23.32.35.48-1.42,2.12-2.84,4.23-4.47,6.65a56.551,56.551,0,0,0,5.36,2.15,30.021,30.021,0,0,0,13.4.39c7.47-1.28,14.72-3.22,20.59-8.42a2.632,2.632,0,0,0,.76-2.03c-.49-2.86-2.08-4.13-4.94-3.75-6.93.9-13.84,1.94-20.75,2.95-1.99.29-3.97.69-6.37,1.11,1.06-1.35,1.81-2.3,2.53-3.21-2.22-1.48-4.35-2.9-6.47-4.32a35,35,0,0,0,18.5,2.39c4.43-.61,8.54-1.99,11.64-5.47.58-.65,1.34-1.99,1.65-1.89a6.981,6.981,0,0,1,2.34,1.81c.76.74,1.42,1.59,2.14,2.38a25.654,25.654,0,0,0,3.29,3.45,13.589,13.589,0,0,1,4.17,5.19c1.33,2.7,2.73,5.39,4.32,7.94a10.154,10.154,0,0,0,3.09,3.1c6.17,3.86,12.87,5.11,19.92,3.08,6.49-1.86,11.67-5.51,14.49-11.95-1.08,6.63-3.73,12.25-10.1,15.45,3.69,1.61,7.18,3.14,10.72,4.69-1.84.83-2.2,1.14-7.15.1-6.58-1.39-15.15,5.94-14.79,13.37.16,3.41,1.71,5.31,5.08,5.75a39.323,39.323,0,0,0,4.61.24c2.49.04,4.98-.1,7.46.05,2.13.13,3.09,1.03,3.32,2.57a21.733,21.733,0,0,0-14.53.9c-2.48.96-4.19,2.55-4.17,5.54.02,3.21.92,5.87,4,7.31a14.965,14.965,0,0,0,3.72,1.13c3.15.54,6.34.86,9.47,1.45,1.85.35,2.4.97,2.86,2.21a17.615,17.615,0,0,0-13.45.38c-2.41.99-3.23,2.51-2.98,4.87a15.837,15.837,0,0,0,11.36,12.96c3,.73,3.96.33,5.05-3.21a22.388,22.388,0,0,0,.35-2.64,14.8,14.8,0,0,1,.66-2.56c.11-.29.59-.45.89-.66a6.084,6.084,0,0,1,.38,1.19c.19,2.07.19,4.18.55,6.22.28,1.61,1.62,2.12,3.14,1.75a21.9,21.9,0,0,0,12.51-7.62c3.92-4.98,1.9-10.15-4.31-11.24a24.846,24.846,0,0,0-11.01.36,8.587,8.587,0,0,1,3.03-1.98,33.149,33.149,0,0,1,4.36-.79,79.062,79.062,0,0,0,8.02-1.41c3.07-.85,4.52-3.22,4.85-6.34.35-3.26-.8-5.74-3.78-7.16-4.85-2.31-9.8-3.48-15.03-.8a3.815,3.815,0,0,1,3.85-2.46c3.79-.1,7.59-.06,11.37-.29,3.58-.21,5.5-2.2,5.32-5.77a14.8,14.8,0,0,0-1.53-5.92c-3-5.82-8.45-8.33-14.95-7.25-1.8.3-3.62.79-5.4-.23,3.01-1.35,5.91-2.66,8.93-4.01-5.44-3.8-8.17-9.03-9.51-15.2a45.648,45.648,0,0,0,4.25,5.05c8.02,7.19,22.24,8.33,31.46,2.73,3.37-2.04,5.27-5.13,6.75-8.62a43.3,43.3,0,0,1,2.47-5.08c2.14-3.68,4.7-7.14,5.34-11.52.06-.44.45-.84.93-1.68a19.964,19.964,0,0,0,1.12,2.63c.67,1.07,1.25,2.45,2.25,3.02a32.054,32.054,0,0,0,22.05,4.14,53.606,53.606,0,0,0,5.84-1.74c-.82.66-1.37,1.1-1.91,1.55-.6.49-1.22.95-1.78,1.48-2.24,2.14-2.11,2.97.6,4.29a3.117,3.117,0,0,1,.5.41,4.234,4.234,0,0,1-.82-.01c-5.59-1.31-11.19-2.58-16.76-3.98a17.921,17.921,0,0,0-10.82.6c-2.28.84-3.43,5.13-1.67,6.41,2.76,2.01,5.54,4.24,8.67,5.41a41.027,41.027,0,0,0,20.46,2.29,22.286,22.286,0,0,0,8.41-2.68c-1.01-1.6-1.92-3.04-2.83-4.47.13-.12.27-.24.4-.36,2.03,1.44,4.2,2.57,6.73,2.14a27.508,27.508,0,0,0,4.93-1.43c3.52-1.3,6.79-3.22,10.67-3.59a6.9,6.9,0,0,0,5.27-4.26c-.11-.07-.22-.15-.33-.22-.44.16-.88.33-1.49.56a10.1,10.1,0,0,0,1.37-2.7,50.361,50.361,0,0,0-.42-16.43c-1.35-7.05-4.67-13.13-8.81-18.83a35,35,0,0,1-6.69-16.8,26.19,26.19,0,0,0-1.67-6.51c-2.06-5.2-5.76-6.76-10.94-4.88-.98.36-1.99.62-2.99.93-.06-.17-.12-.34-.19-.5,1.4-.79,2.79-1.58,4.19-2.37-.04-.15-.09-.31-.13-.46-3.61.7-7.22,1.4-11.02,2.14.28-.53.48-.91.78-1.49-4.58.73-9.01,1.38-11.05,6.12a9.306,9.306,0,0,0-.11,7.71c2.81-2.56,3.63-5.82,5.25-8.62a15.114,15.114,0,0,1-.43,2.45c-.5,2.13-1.07,4.25-1.5,6.39-.22,1.09-.05,2.42,1.24,2.53.64.05,1.74-.95,2-1.7.72-2.05,1.1-4.23,1.64-6.35a13.853,13.853,0,0,1,.62-1.62c.21.06.42.13.63.19q-.495,2.64-.99,5.29c-.22,1.22-.78,2.52-.53,3.64.21.94,1.37,1.67,2.11,2.5a7.912,7.912,0,0,0,1.61-2.01,24.355,24.355,0,0,0,.49-3.15c.54-2.45,1.15-4.89,1.73-7.33.16.04.31.07.47.11-.23,1.39-.51,2.78-.68,4.18a40.991,40.991,0,0,0-.41,5.29c.02,1.19.8,2.37,2.07,2.21a3.263,3.263,0,0,0,2.21-1.79,29.536,29.536,0,0,0,.96-4.94c1.58.98,1.94-1.08,3.14-1.41a6.641,6.641,0,0,0-.22,1.88c.14.82.33,1.88.89,2.28.44.31,1.55-.1,2.24-.45a19.056,19.056,0,0,0,2.53-1.84c-.87,2.82-.04,5.14,1.08,7.3,2.31,4.44,2.51,9.2,2.37,14.02a13.009,13.009,0,0,1-.52,2.43h-.55c-1.15-4.76-1.19-9.93-4.94-13.76q.96,7.755,1.92,15.52c-.09.02-.19.03-.28.05-.26-.53-.51-1.05-.84-1.71-.64,2.26-1.13,4.33-1.81,6.33-2.35,6.91-.84,13.05,3.56,18.66.25.32.45.68.94,1.42a12.136,12.136,0,0,1-6.84-7.25c-1.4-3.74-4.15-5.65-7.77-6.57a24.681,24.681,0,0,0-14.19.54c-3.39,1.14-6.73,2.45-10.09,3.68-.05-.06-.1-.11-.15-.17.8-.69,1.6-1.38,2.39-2.07-5.27-6.39-22.51-9.36-27.91-4.77C1176.86,503.37,1177.91,503.37,1178.97,503.37Zm-70.67,42.4c-1.03,4.52-2.2,8.8-2.84,13.15a4.884,4.884,0,0,0,2.03,3.79c1.37.9,2.19-.87,2.92-1.86,1.67-2.3,3.26-4.65,4.86-7,.49-.72.9-1.49,1.35-2.23l.75.66c-1.47,5.02-3.21,9.99-3.24,15.35,2.18-3.14,3.8-6.56,5.91-9.63,2.16-3.13,4.81-5.92,7.11-8.69-2.29.71-4.96,1.54-7.97,2.48.5-1.11.81-1.82,1.2-2.69-1.7-.53-3.19-1.1-4.73-1.45-3.84-.87-6.9-2.7-8.6-6.42a6.178,6.178,0,0,0-.93-1.3,6.318,6.318,0,0,0-9.9-.14c-3.29,3.76-2.32,9.17,2.16,12.09,2,1.31,3.48,1.14,4.96-.74.95-1.21,1.68-2.58,2.57-3.83C1106.54,546.38,1107.26,545.5,1108.3,545.77Zm79.86-.24a23.6,23.6,0,0,1,2.49,2.24c1.12,1.37,2.04,2.91,3.16,4.28.69.84,1.74,1.65,2.76.74a59.224,59.224,0,0,0,4.51-4.72,1.309,1.309,0,0,0,.15-1.02,31.06,31.06,0,0,0-1.57-5.24c-1.14-2.43-3.31-3.25-5.93-2.77a7.636,7.636,0,0,0-5.25,3.89,7.31,7.31,0,0,1-5.1,3.5c-1.51.3-3.01.64-4.5,1.03-1,.26-1.96.65-3.11,1.03.56,1.11.98,1.93,1.65,3.24-3.06-.92-5.69-1.71-8.2-2.47a39.985,39.985,0,0,1,4.01,4.45c2.39,3.58,4.54,7.32,6.79,10.99.73,1.19,1.37,2.84,3.08,2.22.42-.15.5-2.28.16-3.32-1.05-3.2-2.37-6.31-3.59-9.45-.24-.62-.47-1.26-.7-1.88.14-.1.28-.2.42-.29a10.331,10.331,0,0,1,1.44,1.36c1.23,1.74,2.34,3.56,3.57,5.3a36.742,36.742,0,0,0,2.85,3.61c.73.79,1.86,1,2.44-.01.68-1.16,1.49-2.65,1.3-3.84C1190.31,554.25,1189.21,550.14,1188.16,545.53Zm-62.68,10.99a15.085,15.085,0,0,0-6.35,7.84c-2.03,5.28-2.1,10.76-1.49,16.29a2.609,2.609,0,0,0,.55,1.47c1.98,2,1.73,3.99.15,6.06a6.847,6.847,0,0,0-.58,1.29,8.537,8.537,0,0,0-.19,7.89c2.42,4.57,6.44,7.41,11.09,9.64a4.2,4.2,0,0,0,.39-.97A21.1,21.1,0,0,0,1125,592.4a3.355,3.355,0,0,0-2.05-1.2c-1.25-.19-1.55-.82-1.51-1.91,2.3.14,3.08-.25,3.57-2.51a20.951,20.951,0,0,0,.46-5.96c-.24-3.19-1.44-4.12-4.62-4.24a4.9,4.9,0,0,1-.86-.23,17.7,17.7,0,0,1,.74-2.36,20.7,20.7,0,0,0,2.18-8.88A14.408,14.408,0,0,1,1125.48,556.52ZM1175,589.18c.11.15.22.3.34.45-.46.49-.87,1.35-1.38,1.42a4,4,0,0,0-3.3,2.65,68.016,68.016,0,0,0-3.08,8.84c-.24.91.57,2.22,1.21,3.13.16.23,1.55-.3,2.32-.63a22.13,22.13,0,0,0,2.31-1.32c6.94-4.04,7.35-10.87,3.99-17.21a5.951,5.951,0,0,1-.45-3.5c.32-2.01,1.04-3.96,1.53-5.95,1.59-6.41.13-12.2-3.8-17.39a35.7,35.7,0,0,0-3.46-3.5c-.14.11-.28.23-.42.34,2.24,2.38,2.86,5.29,2.87,8.38a20.287,20.287,0,0,0,1.81,8.43,29.642,29.642,0,0,1,1.01,3.06,7.61,7.61,0,0,1-1.05.17c-2.66.02-3.94.83-4.18,3.46a29.733,29.733,0,0,0,.43,7.16A2.307,2.307,0,0,0,1175,589.18Z"/>
      <path id="Path_56" data-name="Path 56" d="M1150.5,534.76c-2.49-8.35-1.36-16.76-.49-25.16A45.967,45.967,0,0,1,1150.5,534.76Z"/>
      <path id="Path_57" data-name="Path 57" d="M1149.7,558.42V538.53c.3,0,.6.01.9.01C1152.45,544.94,1152.84,551.3,1149.7,558.42Z"/>
      <path id="Path_58" data-name="Path 58" d="M1154.08,566.63c-2.89,1.54-5,2.71-6.96.84-.39-.37.39-2.97,1.28-3.54C1151.34,562.07,1151.55,565.75,1154.08,566.63Z"/>
      <path id="Path_59" data-name="Path 59" d="M1149.25,583.4q.33-3.885.67-7.77c.26.02.51.03.77.05v7.7C1150.21,583.38,1149.73,583.39,1149.25,583.4Z"/>
    </g>
  </g>
</svg>
