<svg xmlns="http://www.w3.org/2000/svg" width="336.867" height="244.664" viewBox="0 0 336.867 244.664">
  <g id="Group_12" data-name="Group 12" transform="translate(-780.072 -977.097)">
    <path id="Path_77" data-name="Path 77" d="M1116.6,1153.7c-3.6-32.1-31.9-57-63.3-54.6-7.2.5-10.3-1.3-11-8.1-.2-1.7-.8-3.4-1.1-5,6.3-4,7.9-6.6,6.6-11.2-1.7-5.8-6.5-6.1-11.3-6.2-4,0-8.1.1-12.1.3-12.5.5-12.3.4-16.9-11.7-5.1-13.6-8.7-27.8-18.2-39.5-8.1-10-16.2-12.7-26.8-5.5-19.5,13.2-38.6,26.9-57.1,41.5-11.4,8.9-11.8,20.9-2,31.9,5,5.6,11.3,10.2,17.5,14.5,7.9,5.4,16.3,10.1,24.9,15.3-1.6,2.5-2.8,4.6-4.1,6.6-8,11.9-16.1,23.8-24.1,35.7-3.2,4.7-3.2,9.4,1.1,13.3,4.2,3.8,9.1,3.6,13.7.7,2.2-1.4,3.9-3.7,5.5-5.8,10.9-15.1,21.7-30.3,32.5-45.4,6.4-9,5.6-13.2-3.5-19.3-10-6.7-20-13.4-30.8-20.6,15.1-10.5,29.3-20.4,44.1-30.7,3.3,8.8,6.4,16.5,9.1,24.3,4.7,13.4,7.8,16.3,20.8,14.2.5-.1,1.1.4,2.2.8-1.2,1.5-2.1,2.6-3.1,3.8-15.3,17.3-30.5,34.7-45.8,52-3.4,3.9-7.3,7.5-9.9,11.8-1.1,1.9-.4,6.3,1.1,8,1.2,1.3,5.3.8,7.7,0,1.9-.7,3.1-3.1,4.6-4.8q28.65-32.55,57.2-65.3c1.4-1.6,1.9-4,2.8-6,.8.7,1.6,1.5,2.4,2.2,1.1,3.8,2.2,7.7,3.4,11.9-2.2,1.2-3.5,1.9-4.9,2.6-27.8,15-40.2,45.6-30.3,74.9,9.7,28.6,38.6,45.3,69.5,40.2C1097.4,1215.5,1120,1185.1,1116.6,1153.7Zm-45.7,54.2a50.2,50.2,0,0,1-63.2-32c-8.1-24.7,4.8-53.3,28.2-61.3,3.7,12.9,7.3,25.8,11,38.6.7,2.6,1.4,5.2,2.3,7.7,1.3,3.8,3.6,6.5,8,5,4.1-1.4,5.1-4.7,4-8.7-3.2-11.2-6.4-22.4-9.5-33.6-1.1-4.1-2.3-8.1-3.4-12.2,20.9-6.5,47.6,9.9,55.1,33.4A50.37,50.37,0,0,1,1070.9,1207.9Z"/>
    <path id="Path_78" data-name="Path 78" d="M903,1151.8c-2.3-13.1-8.1-24.4-16.7-34.4,5.9-7.2,11.5-13.9,15.8-19.1-4.8-8.5-8.8-15.9-13-23.1a5.918,5.918,0,0,0-3.7-2.9c-4.8-.5-8.5,1.5-9.4,6.5-.9,5.3,2,8.7,7.1,9.5,3.1.5,6.4.1,11.1.1-6.6,7.8-12,14.3-17.6,20.9-2.3-1.2-4.2-2.3-6.2-3.3a59.029,59.029,0,0,0-42.4-5.6c-30.4,7.2-50.3,34.5-47.7,65,2.5,30.1,26.8,53.9,57.3,56.2,29.8,2.2,56.8-18.3,63.9-48.5a15.325,15.325,0,0,1,2.1-5.5c2.7-4.1,5.8-8,8.4-11.6C908.3,1154.4,903.3,1153.5,903,1151.8Zm-47.2,56.7a50.25,50.25,0,0,1-47.2-86c16.8-14.9,42.4-16.8,60.4-4-10.1,12-20,23.6-29.5,35.5-2,2.5-3.9,7-2.9,9.2s5.7,3.7,8.9,3.7c15,.4,29.9.2,44.8.2C891.2,1183.8,874.9,1203.1,855.8,1208.5Zm-.1-54.8c8.1-9.7,15.4-18.5,24.2-28.9,4.7,10.2,8.6,18.8,13.3,28.9Z"/>
    <path id="Path_79" data-name="Path 79" d="M1017.2,1022.4c12.6-.3,22.1-10.5,21.9-23.3a22.409,22.409,0,1,0-21.9,23.3Z"/>
    <path id="Path_80" data-name="Path 80" d="M1028.5,1050.9c-2.2,1.3-5.9,4.3-5.2,7.4.5,2.3,3.1,3.4,5.2,4.4a17.76,17.76,0,0,0,13.9-.1c1.9-.9,5.6-2.6,5.7-5.3.2-3.3-5.2-5.7-6.5-6.3C1040.6,1050.4,1034.2,1047.6,1028.5,1050.9Z"/>
  </g>
</svg>
