<svg xmlns="http://www.w3.org/2000/svg" width="181.251" height="290.603" viewBox="0 0 181.251 290.603">
  <g id="Group_10" data-name="Group 10" transform="translate(-522.276 -927.899)">
    <path id="Path_69" data-name="Path 69" d="M580.6,1030.6v2c0,15.4.2,30.9-.1,46.3-.2,7.3,3,12.6,8.4,16.7,10.4,8,20.9,15.7,31.4,23.5,2.7,2,5.5,4,8.2,6a40.081,40.081,0,0,1,11.6,14.8c5,10.4,10.2,20.7,15.3,31.1,5.5,11.2,13.7,27.6,19.2,38.8a15.2,15.2,0,0,0,28.7-4c.7-3.7-.3-7.2-1.9-10.5-5.6-11.4-13.7-28.1-19.3-39.5-6.5-13.5-13.1-27-19.6-40.5-2.5-5.3-6.5-9.2-11.2-12.6-8.5-6.2-16.9-12.6-25.4-18.8a1.716,1.716,0,0,1-.8-1.6v-76.5a34.45,34.45,0,0,0-.6-8.5,17.136,17.136,0,0,0-12.9-13,26.266,26.266,0,0,0-24.1,5.1c-6.3,5-12.5,10.2-18.7,15.3l-13.5,11.1a16.51,16.51,0,0,0-4.6,6.2l-18.9,45.9a12.893,12.893,0,0,0,9.9,17.8,13.135,13.135,0,0,0,14-7.9c1.7-4,3.4-7.9,5.1-11.9,4.1-9.4,8.2-18.9,12.4-28.3a6.955,6.955,0,0,1,1.7-2.5Q577.6,1033,580.6,1030.6Z"/>
    <path id="Path_70" data-name="Path 70" d="M605.6,1120.2c-8.4-6.4-16.8-12.7-25.3-19.1l-3.9,6.6c-6.1,10.4-12.3,20.7-18.4,31.1-11.1,18.8-22.3,37.6-33.4,56.4a15.148,15.148,0,1,0,25.6,16.2c2.1-3.3,4-6.8,6.1-10.1l15-24.6c6.6-10.9,13.3-21.9,19.9-32.8l13.8-22.8Z"/>
    <path id="Path_71" data-name="Path 71" d="M605.5,927.9a26.1,26.1,0,1,0,26.1,25.5A26.162,26.162,0,0,0,605.5,927.9Z"/>
    <path id="Path_72" data-name="Path 72" d="M633.5,1007.1v6.7c0,9,.1,17.9.1,26.9,0,1,0,2,.1,3a2.112,2.112,0,0,0,.4,1c8.7,9.3,17.4,18.7,26.3,27.8,6.8,7,18.9,3.6,21.4-5.8a12.447,12.447,0,0,0-3.1-12.3c-7.3-7.8-14.8-15.5-22.1-23.3-7.4-7.8-14.8-15.6-22.2-23.3C634.1,1007.6,633.9,1007.4,633.5,1007.1Z"/>
  </g>
</svg>
