<svg xmlns="http://www.w3.org/2000/svg" width="102.744" height="211.627" viewBox="0 0 102.744 211.627">
  <path id="Path_65" data-name="Path 65" d="M832.19,1066.38c-1.32,2.1-1.32,2.22.18,2.66a34.174,34.174,0,0,0-2.73,13.03,26.849,26.849,0,0,0,.16,2.83,2.349,2.349,0,0,1,.04.45c-.51,3.54-1.01,7.09-2.93,10.22-1.42,2.33-3.05,4.54-4.3,6.96a215.423,215.423,0,0,1-11.79,20.34,9.679,9.679,0,0,0-1.52,7.02,10.547,10.547,0,0,1-.77,4.18c-.54,1.77-1.39,3.45-1.9,5.22-.56,1.95-.88,3.97-1.32,5.96a9.7,9.7,0,0,1-.51,1.69c-.59,1.37-.46,2.05.86,2.68,1.6.77,3.25,1.43,4.92,2.04,3.06,1.12,6.1,2.28,9.22,3.21a21.213,21.213,0,0,0,5.79.97,85.6,85.6,0,0,0,9.73-.52c2.03-.22,2.57-2.13,1.27-3.75a5.254,5.254,0,0,0-3.38-1.9,14.872,14.872,0,0,1-9.63-6.12,14.618,14.618,0,0,1-1.63-3.51,1.908,1.908,0,0,1,.05-1.33c.45-1.03,1.01-2.01,1.56-2.99a1.13,1.13,0,0,1,.62-.47,6.076,6.076,0,0,0,3.67-3.2c3.67-6.63,7.26-13.31,9.14-20.73a1.815,1.815,0,0,1,.66-.83,6.776,6.776,0,0,1,1.08-.63,9.355,9.355,0,0,0,4.89-5.8c1.46-5.09,3.17-10.1,4.76-15.1a5.864,5.864,0,0,0,.38.67c1.6,2.48,3.16,4.98,4.83,7.41a9.221,9.221,0,0,1,1.98,4.38,7.064,7.064,0,0,0,1.74,4.35,1.185,1.185,0,0,1,.26,1.03c-.58,1.32-.2,2.39.37,3.64.91,2.03,1.38,4.25,2.17,6.33,1.05,2.79,2.29,5.52,3.33,8.32a22.6,22.6,0,0,1,.77,3.49c.29,1.48.23,3.11.88,4.41a54.623,54.623,0,0,0,4.67,7.77c1.01,1.39,2.37,2.52,2.75,4.3a.432.432,0,0,0,.17.29c1.47.97,1.39,2.63,1.82,4.07.43,1.46.59,1.56,2.04,1.39a82.226,82.226,0,0,0,28.57-9.3,4.335,4.335,0,0,0,.97-.59c.44-.42,1.22-1.04,1.12-1.34a3.827,3.827,0,0,0-1.41-1.94,5.4,5.4,0,0,0-4.27-.61,27.191,27.191,0,0,1-13.05-.47,5.374,5.374,0,0,1-1.47-.92c-.71-.49-1.37-1.07-2.12-1.49a2.372,2.372,0,0,1-1.33-2.03,4.754,4.754,0,0,0-1.25-2.65,4.151,4.151,0,0,1-1.32-3.97,4.9,4.9,0,0,0-.5-2.94c-2.1-3.72-4.31-7.39-6.57-11.02a16.266,16.266,0,0,1-2.68-8.66,2.2,2.2,0,0,1,.48-1.2,6.382,6.382,0,0,0,1.31-5.67,32.1,32.1,0,0,0-1.91-5.17c-.82-1.79-2.06-3.4-2.73-5.23a52.305,52.305,0,0,1-2.53-8.63c-1.02-5.66-1.76-11.37-2.53-17.07-.36-2.66-.86-5.23-2.59-7.4a1.758,1.758,0,0,1-.15-1.04c.04-1.2.32-2.44-.7-3.43a.433.433,0,0,1-.13-.3,22.7,22.7,0,0,1,.97-6.76c1.85,1.61,3.72,2.91,4.16,5.44.46,2.65,2.07,4.74,3.59,6.87a9.061,9.061,0,0,1,1.02,2.48c.29.89.65,1.56,1.77,1.19a.66.66,0,0,1,.56.14,1.435,1.435,0,0,0,2.03.17c1.07,1.1,1.07,1.1,2.66.05.06.04.15.07.16.12.09.63.04,1.42.96,1.38a1.416,1.416,0,0,0,1.36-1.43c.11-1.26.14-2.52.2-3.79a.509.509,0,0,0-.06-.21c-1.99-3.52-3.08-7.6-6.64-10.13a19.6,19.6,0,0,1-2.61-2.83c-1.38-1.51-2.83-2.95-4.14-4.52a75.854,75.854,0,0,1-4.89-6.27,21.534,21.534,0,0,1-1.94-4.38c-2.49-6.49-2.05-13.41-2.91-20.14a63.862,63.862,0,0,0-1.57-8.23c-.5-1.88-1.6-3.6-2.17-5.47a47.594,47.594,0,0,1-1-5.35,10.3,10.3,0,0,0-3.39-6.39,1.062,1.062,0,0,1-.31-.92c.38-1.31.8-2.6,1.29-3.88a2.4,2.4,0,0,1,2.51-1.58c.27.01.53.02.8.01,2.16-.02,2.72-.62,2.78-2.8a10.69,10.69,0,0,1,.44-1.58,12.285,12.285,0,0,0,.37-2.74c-.04-.78-.02-1.17.9-1.27,1.61-.18,2.04-1.31,1.13-2.69-.36-.54-.71-1.08-1.08-1.61a4.087,4.087,0,0,1-.68-3.96,2.7,2.7,0,0,0-.19-1.61c-.33-.93-.78-1.81-1.16-2.71-.56-1.32-1.34-2.5-1.13-4.13.16-1.25-.91-2.17-2.03-2.63a14.545,14.545,0,0,0-3.69-1.06c-3.13-.39-6.28-.58-9.33.54a11.946,11.946,0,0,0-7.44,7.17c-.09.25-.17.5-.28.74-2.17,4.79-1.49,9.24,1.39,13.55a34.357,34.357,0,0,1,2.07,4.52c.36.76,1,1.47.5,2.37a2.538,2.538,0,0,1-.99,1.1,7.567,7.567,0,0,0-5.06,6.31,2.773,2.773,0,0,1-.62,1.17,21.218,21.218,0,0,0-4.17,8.37c-.11.54-.89,1.07-1.48,1.36-1.97.96-2.18,1.33-1.49,3.42a3.676,3.676,0,0,1-.27,3.07,5.735,5.735,0,0,0-.67,1.67,1.9,1.9,0,0,0,.24,1.38c1.12,1.38,2.35,2.67,3.51,4.02a1.227,1.227,0,0,1,.19.81c-.62,8.5-1.35,17-1.87,25.51-.3,4.84-.27,9.7-.4,14.55-.07,2.77-.12,5.53-.25,8.3-.05,1.07.38,1.5,1.41,1.61,1.66.18,3.3.43,4.95.71a1.631,1.631,0,0,1,1.07.52c.93,1.55,1.8,3.14,2.63,4.74a2,2,0,0,1-.6,2.64c-.17.15-.41.3-.46.49a12.413,12.413,0,0,0-.22,1.36,11.632,11.632,0,0,0,1.32.01C831.74,1066.62,831.96,1066.47,832.19,1066.38Z" transform="translate(-804.464 -944.216)"/>
</svg>
