<svg xmlns="http://www.w3.org/2000/svg" width="160.36" height="162.753" viewBox="0 0 160.36 162.753">
  <path id="Path_66" data-name="Path 66" d="M1464.82,1100.73a32.259,32.259,0,0,0-28.48-8.96l-7.33-28.61.32-.07a.214.214,0,0,0,.17-.25l-.07-.36.46-.09a.209.209,0,0,0,.17-.25l-.19-1a.2.2,0,0,0-.09-.14.222.222,0,0,0-.16-.03l-.48.09-.06-.28a.216.216,0,0,0-.09-.14.232.232,0,0,0-.16-.03l-.43.09-.17-.66a.221.221,0,0,0-.25-.16l-.12.03-1.17-4.87,4.08-1.85.18.37a.216.216,0,0,0,.12.11.17.17,0,0,0,.07.01.291.291,0,0,0,.09-.02l1.68-.8a.216.216,0,0,0,.1-.29l-.07-.16,1.51-.12a2.713,2.713,0,0,0,2.73-2.54v-.04a2.424,2.424,0,0,0-2.4-2.07,5.36,5.36,0,0,0-1.39-.14c-.19,0-.4,0-.64.01-1.93.07-4.07.07-4.09.07a.2.2,0,0,0-.15.06l-.48.49-6.45.53a2.038,2.038,0,0,0-1.56-1.03c-1.09-.09-4.39-.12-4.54-.12h-.02c-.74-.16-1.47-.39-1.77-.48-2.39-1.33-6.77-4.35-7.92-5.75-1.26-1.55-6.34-4.33-7.02-4.69a22.714,22.714,0,0,0-6.6-9.06c-1.52-1.45-3.09-2.95-3.28-3.66-.03-.12-.07-.26-.1-.41a25.662,25.662,0,0,0-.99-3.23,1.942,1.942,0,0,0,.95-.95.248.248,0,0,0,0-.17.187.187,0,0,0-.12-.11c-.01-.01-.03-.01-.05-.02a8.252,8.252,0,0,0,1.43-1.23.941.941,0,0,1,.1-.1c.02.04.03.07.05.11a.336.336,0,0,0-.08.41l.03.05a1.131,1.131,0,0,0,.99.58,1.126,1.126,0,0,0,1.09-.82.06.06,0,0,1,.01-.04c.1.05.19.1.28.15a2.493,2.493,0,0,0,1.09.25,2.539,2.539,0,0,0,1.45-.45,1.485,1.485,0,0,0,.56-1.37.532.532,0,0,1,.65-.62.705.705,0,0,0,.5-.3.924.924,0,0,0,.14-.58.9.9,0,0,0,.5-.27.8.8,0,0,0,.19-.58,1.339,1.339,0,0,1,.36-.57c.02.01.04.01.06.02a3.434,3.434,0,0,0,.82.13.9.9,0,0,0,.76-.31,3.066,3.066,0,0,0,.2-1.96c-.01-.15-.03-.28-.03-.35a3.655,3.655,0,0,0-.21-.92,4.3,4.3,0,0,1-.17-.66,1.629,1.629,0,0,1,.35-.84c.06-.09.11-.17.16-.25a4.033,4.033,0,0,0,.3-2.04,2.708,2.708,0,0,1,.06-.58,3.885,3.885,0,0,0,2.23-1.88.292.292,0,0,0,.02-.09,11.5,11.5,0,0,0-.39-2.76c-.24-.88-.74-.92-1.1-.94-.31-.02-.48-.03-.58-.49l-.03-.14a7.786,7.786,0,0,0-1.87-3.74c-1.82-1.91-4.74-2.8-8.66-2.62-3.18.15-7.29,1.48-8.38,4.76-.97,2.92-1.51,4.84-.87,6.49v.06a18.889,18.889,0,0,0,.69,2.5.161.161,0,0,0,.04.07l1.36,1.54a.618.618,0,0,0,.47.22.6.6,0,0,0,.27-.07,4.608,4.608,0,0,0,.08.93,8.135,8.135,0,0,1-1.55,2.17.694.694,0,0,1-.08-.1.218.218,0,0,0-.3-.04,7.005,7.005,0,0,1-2.14,1.05q-.21.06-.45.12c-.52.13-1.09.29-1.71.47-.15-.01-.3-.03-.45-.03a5.029,5.029,0,0,0-2.75.8,12.766,12.766,0,0,0-1.56,1.2,25.41,25.41,0,0,0-3.87,2.66c-6.8,5.66-13.68,19.14-14.84,22.46a34.594,34.594,0,0,1-2.83,5.6c-.4.69-.75,1.28-1.01,1.78-.53,1.02-1.39,2.8-1.11,3.25a.306.306,0,0,0,.27.15h.04c-.23.62-.46,1.32-.68,2.1a31.471,31.471,0,0,0-.84,3.73,13.218,13.218,0,0,0,1.11,8.75,4.4,4.4,0,0,0-1.14,1.43l-.02.02a.589.589,0,0,1-.03.07,3.983,3.983,0,0,0-.35,1.66c-.02,2.96.86,4.06,1.94,4.5a1.3,1.3,0,0,0,.49.52,3.853,3.853,0,0,0,1.2.26l.02.05a1.807,1.807,0,0,0,1.63,1.09h.14l4.27-.27c.71,1.02,1.59,2.23,2.78,3.69.41.51.82,1,1.23,1.48l.39,4.48-3.94,8.47a32.295,32.295,0,1,0,20.15,38.6,13.577,13.577,0,0,0,1.3.58h-.53a1.2,1.2,0,0,0-1.14,1.11c0,.01-.01.03-.01.04v.02c0,.04-.01.07-.01.11v2.89a1.228,1.228,0,0,0,1.15,1.28h10.49a1.215,1.215,0,0,0,1.15-1.28v-2.89a1.228,1.228,0,0,0-1.15-1.28,14.813,14.813,0,0,0,2.56-1.18.653.653,0,0,0,.49.23.569.569,0,0,0,.22-.04l.77-.28a.645.645,0,0,0,.41-.73l-.1-.51a4.82,4.82,0,0,0,.65-.75.161.161,0,0,0,.03-.09c.01-.11.01-.23.01-.36l.93.85a.665.665,0,0,0,.85.02l.63-.53a.658.658,0,0,0,.14-.83l-1.11-1.83c.09-.1.18-.21.27-.32l1.97.81a.687.687,0,0,0,.24.05.651.651,0,0,0,.56-.32l.41-.71a.635.635,0,0,0-.16-.82l-1.67-1.33c.05-.13.1-.26.14-.39l2.12.09h.03a.634.634,0,0,0,.63-.53l.14-.81a.631.631,0,0,0-.43-.72l-2.03-.68v-.42l2.03-.64a.648.648,0,0,0,.44-.72l-.14-.81a.634.634,0,0,0-.63-.53h-.02l-2.14.05c-.04-.13-.09-.26-.14-.39l1.68-1.3a.649.649,0,0,0,.16-.83l-.38-.66,30.57-30.04a.361.361,0,0,1,.26-.11.375.375,0,0,1,.36.28l2.16,8.41a32.3,32.3,0,1,0,33.17,7.72Zm1.34,22.84a24.927,24.927,0,0,1-.21,3.13l-11.28-3.13,11.28-3.13A24.952,24.952,0,0,1,1466.16,1123.57Zm-48.36,0a24.927,24.927,0,0,1,.21-3.13l11.28,3.13-11.28,3.13A24.926,24.926,0,0,1,1417.8,1123.57Zm28.02-.93-.08-.08.03-.11.18.05Zm.27-1.44.23-.91,2.42-.63-1.75,1.78Zm-1.25-.35-.11-.03-.03-.11.18-.05Zm-.49-1.39-.25-.9,1.78-1.75-.63,2.42Zm-6.49,1.74-.9.25-1.75-1.78,2.42.63Zm.33,1.26.03.11-.08.08-.13-.14Zm-.96,1.11-.66.67-2.41-.67,2.41-.67Zm.91.93.08.08-.03.11-.18-.05Zm-.28,1.45-.23.91-2.42.63,1.75-1.78Zm1.26.35.11.03.03.11-.18.05Zm.48,1.39.25.9-1.78,1.75.63-2.42Zm1.26-.33.11-.03.08.08-.14.13Zm1.12.96.67.66-.67,2.41-.67-2.41Zm.93-.91.08-.08.11.03-.05.18Zm1.44.28.91.23.63,2.42-1.78-1.75Zm.35-1.26.03-.11.11-.03.05.18Zm1.39-.48.9-.25,1.75,1.78-2.42-.63Zm-.32-1.26-.03-.11.08-.08.13.14Zm.96-1.12.66-.67,2.41.67-2.41.67Zm5.5-.67-3.8-1.05,2.76-2.81,13.58-3.51a23.2,23.2,0,0,1,.97,3.64Zm.74-5.67,8.2-8.34a24.228,24.228,0,0,1,3.13,5.41Zm-2.45.63-3.82.99.99-3.82,9.99-9.82a25.692,25.692,0,0,1,2.66,2.66Zm-2.2-5.28,2.93-11.33a24.456,24.456,0,0,1,5.41,3.13Zm-1.8,1.78-2.81,2.76-1.05-3.8,3.74-13.51a24.688,24.688,0,0,1,3.64.97Zm-4.54-3.48-3.13-11.28a23.435,23.435,0,0,1,6.26,0Zm-6.35,1.7-8.34-8.2a24.228,24.228,0,0,1,5.41-3.13Zm.64,2.45.99,3.82-3.82-.99-9.82-9.99a25.692,25.692,0,0,1,2.66-2.66Zm-5.28,2.2-11.33-2.93a24.456,24.456,0,0,1,3.13-5.41Zm1.77,1.8,2.76,2.81-3.8,1.05-13.51-3.74a24.688,24.688,0,0,1,.97-3.64Zm-1.03,5.22,3.8,1.05-2.76,2.81-13.58,3.51a23.2,23.2,0,0,1-.97-3.64Zm-.74,5.67-8.2,8.34a24.228,24.228,0,0,1-3.13-5.41Zm2.45-.64,3.82-.99-.99,3.82-9.99,9.82a25.692,25.692,0,0,1-2.66-2.66Zm2.19,5.28-2.93,11.33a24.456,24.456,0,0,1-5.41-3.13Zm1.81-1.77,2.81-2.76,1.05,3.8-3.74,13.51a24.688,24.688,0,0,1-3.64-.97Zm4.54,3.47,3.13,11.28a23.435,23.435,0,0,1-6.26,0Zm.67-2.44,1.05-3.8,2.81,2.76,3.51,13.58a23.2,23.2,0,0,1-3.64.97Zm5.67.74,8.34,8.2a24.228,24.228,0,0,1-5.41,3.13Zm-.63-2.45-.99-3.82,3.82.99,9.82,9.99a25.692,25.692,0,0,1-2.66,2.66Zm5.28-2.19,11.33,2.93a24.456,24.456,0,0,1-3.13,5.41Zm-1.78-1.81-2.76-2.81,3.8-1.05,13.51,3.74a24.688,24.688,0,0,1-.97,3.64Zm-59.91-110.05a.474.474,0,0,1-.35.04l.56-.32A.392.392,0,0,1,1391.28,1018.06Zm32.34,42.79a.207.207,0,0,0-.14.1.249.249,0,0,0-.03.17l.15.59-.28.06a.214.214,0,0,0-.17.25l.43,2.06a.216.216,0,0,0,.09.14.284.284,0,0,0,.12.04h.04l.39-.08,1.75,6.84-33.35,5.89c1.51-4.12,6.6-14.89,7.62-16.96a12.365,12.365,0,0,0,.4-6.64,6.925,6.925,0,0,0-4.99-5.31c-.29-.1-.61-.2-.95-.32-2.15-.72-5.1-1.7-7.29-2.18a88.924,88.924,0,0,0-11.29-.53c.95-2.66,2-5.16,3.44-6.57a8.9,8.9,0,0,0,1.9-2.53c.1-.18.2-.36.31-.56,1.89,2.23,6.74,7.59,7.57,8.24.96.76,5.04,2.28,6.91,2.89,1.53.5,2.17.74,4.86,1.77.89.34,2.01.76,3.45,1.31l.8.3c.86.33,1.68.64,2.42.91a.17.17,0,0,0,.07.01.209.209,0,0,0,.16-.08c.03-.04.07-.07.1-.11l.76.52a1.21,1.21,0,0,0,.84.77l.07,1.16a1.4,1.4,0,0,0,1.52,1.19.756.756,0,0,0,.15-.01h.01l1.25-.1a.355.355,0,0,0,.02.1c.11.36.63.64,1.36.74a5.417,5.417,0,0,0,.66.05c.21,0,.37-.02.53-.03s.29-.03.45-.03c.09,0,.19,0,.29.01a1.086,1.086,0,0,0,.18.01,3.072,3.072,0,0,0,1.25-.31c.14.01.27.02.39.02.2,0,.36-.02.51-.03s.27-.03.43-.03a2.435,2.435,0,0,1,.27.01,3.749,3.749,0,0,0,2.12-.69,1.216,1.216,0,0,0,.46-.55l1.33-.11-.83.85h0a.408.408,0,0,0-.05.09v.02a.139.139,0,0,0,0,.09l1.57,6.55Zm-46.52,13.06c.26-.26.41-.85.38-2.99a3.853,3.853,0,0,0-3.17-3.72c-.32-.9-.64-1.84-.95-2.78,2.07-.82,4.26-1.61,6.08-2.26,1.76-.63,3.15-1.13,3.89-1.46a10.712,10.712,0,0,1,2.81-.87,20.019,20.019,0,0,0-3.64,8.66c-.42,2.56-.58,4.99-.72,7.13-.08,1.15-.15,2.22-.25,3.24l-1.99.35c-.71-1.38-1.44-2.86-2.5-5.24Zm11.16,28.69c0,.01-.01.03-.01.04v.02c0,.04-.01.07-.01.11v2.89a1.228,1.228,0,0,0,1.15,1.28h5.01l-1.42,2.95a.949.949,0,0,0-.17-.1l-.77-.28a.538.538,0,0,0-.22-.04.648.648,0,0,0-.56.33l-1.03,1.88c-.14-.03-.27-.05-.41-.07l-.28-2.11a.647.647,0,0,0-.64-.56h-.82a.628.628,0,0,0-.63.55l-.32,2.11c-.14.02-.27.04-.41.07l-.98-1.88a.641.641,0,0,0-.57-.34.291.291,0,0,0-.09.02l-5.04-7.02c.5-.06,1.1-.16,1.84-.29a30.8,30.8,0,0,1,4.97-.44,15.057,15.057,0,0,1,1.8.1A1.271,1.271,0,0,0,1388.26,1102.6Zm-66.23,20.97a24.927,24.927,0,0,1,.21-3.13l11.28,3.13-11.28,3.13A24.926,24.926,0,0,1,1322.03,1123.57Zm62.42-6.65-.06-.03c-.02-.01-.02-.02-.02-.03a.037.037,0,0,1,.01-.03Zm-17.41-.89c.02.61.04,1.23.07,1.79a1.216,1.216,0,0,0-.82-.24c-.55.1-1.26.87-1.74,1.99l-10.61.99,1.5-1.52Zm-15.12,4.71-1.51.14.15-.59,2.42-.63Zm-4.78,6.67.08-.08.11.03-.05.18Zm-1.48-9.14-.11-.11.67-2.41.23.82Zm-1.57.29-.25.9-.91-.23-.63-2.42Zm-.6,2.15-.03.11-.11.03-.05-.18Zm-1.39.49-.9.25-1.75-1.78,2.42.63Zm.32,1.26.03.11-.08.08-.13-.14Zm-.96,1.11-.66.67-2.41-.67,2.41-.67Zm.91.93.08.08-.03.11-.18-.05Zm-.27,1.45-.23.91-2.42.63,1.75-1.78Zm1.25.35.11.03.03.11-.18.05Zm.49,1.39.25.9-1.78,1.75.63-2.42Zm1.26-.33.11-.03.08.08-.14.13Zm1.11.96.67.66-.67,2.41-.67-2.41Zm2.13.27.25-.9.91.23.63,2.42Zm.6-2.16.03-.11.11-.03.05.18Zm1.39-.48.9-.25,1.75,1.78-2.42-.63Zm13.73-1.45c.02.18.05.36.08.52l-1.44-.4Zm2.89-11.58c0,.44.02,1.07.04,1.77l-9.79,2.53,8.2-8.34c.48.63.93,1.27,1.35,1.94A20.627,20.627,0,0,1,1366.95,1112.92Zm23.24,2.63a.508.508,0,0,1-.36.15.47.47,0,0,1-.31-.11v-.45a.037.037,0,0,1,.04-.04h.01a4.458,4.458,0,0,1,.79.23.869.869,0,0,1-.1.16Zm-10.06,1.63c-.02.06-.04.12-.06.17-.22-.26-.42-.5-.6-.7Zm-25.38.68-3.82.99.23-.9,1.86-4.01,8.88-8.73a25.692,25.692,0,0,1,2.66,2.66Zm-9.21-4.54-1.05,3.8-2.81-2.76-3.51-13.58a23.2,23.2,0,0,1,3.64-.97Zm-5.67-.74-8.34-8.2a24.228,24.228,0,0,1,5.41-3.13Zm7.02,21.24,1.05-3.8,2.81,2.76,3.51,13.58a23.2,23.2,0,0,1-3.64.97Zm5.67.74,8.34,8.2a24.228,24.228,0,0,1-5.41,3.13Zm28.25-22.71-.03.02a.658.658,0,0,0-.14.83l1.11,1.83c-.09.1-.18.21-.27.32l-1.97-.81a.687.687,0,0,0-.24-.05.651.651,0,0,0-.56.32l-.41.71a.652.652,0,0,0-.08.22.289.289,0,0,0-.11-.08.266.266,0,0,0-.12-.03c-.18,0-.34.16-.51.34a30.9,30.9,0,0,0-1.61-4.69c.19-1.6.43-3.24.75-4.75Zm-26.21-1.27,3.69-7.94a25.727,25.727,0,0,1,2.61,1.74Zm-7.31,4.18-.4-1.44,3.74-13.51a23.027,23.027,0,0,1,3.22.83Zm-1.08-3.88-3.13-11.28a23.435,23.435,0,0,1,6.26,0Zm-15.7-5.67,9.99,9.82.99,3.82-3.82-.99-9.82-9.99A25.713,25.713,0,0,1,1330.51,1105.21Zm4.71,12.02-11.33-2.93a24.456,24.456,0,0,1,3.13-5.41Zm1.78,1.8,2.76,2.81-3.8,1.05-13.51-3.74a24.688,24.688,0,0,1,.97-3.64Zm-1.04,5.22,3.8,1.05-2.76,2.81-13.58,3.51a23.2,23.2,0,0,1-.97-3.64Zm-.74,5.67-8.2,8.34a24.228,24.228,0,0,1-3.13-5.41Zm2.45-.64,3.82-.99-.99,3.82-9.99,9.82a25.692,25.692,0,0,1-2.66-2.66Zm2.2,5.28-2.93,11.33a24.456,24.456,0,0,1-5.41-3.13Zm1.8-1.77,2.81-2.76,1.05,3.8-3.74,13.51a24.688,24.688,0,0,1-3.64-.97Zm4.54,3.47,3.13,11.28a23.435,23.435,0,0,1-6.26,0Zm15.7,5.67-9.99-9.82-.99-3.82,3.82.99,9.82,9.99A22.289,22.289,0,0,1,1361.91,1141.93Zm-4.71-12.01,11.33,2.93a24.456,24.456,0,0,1-3.13,5.41Zm-1.77-1.81-2.54-2.58,6.15-.57,4.9,1.36c.01.04.01.08.02.12a17.3,17.3,0,0,1,.33,3.37.366.366,0,0,0,.09.28c.19.21.67.35,2.41.35.47,0,1.03-.01,1.66-.03.29-.01.59-.01.9-.01h.06c-.12.41-.25.82-.4,1.23Zm20.87-22.54-.06.24.06-.24Zm-.24,1.15a.434.434,0,0,1,.01-.05A.414.414,0,0,0,1376.06,1106.72Zm14.94,18.56c-.45-.22-.97-.49-1.49-.76v-1.72a.294.294,0,0,1,.07-.19,1.842,1.842,0,0,0,.19-.11c.02,0,.03-.01.05-.01a.282.282,0,0,1,.15.04l2.56,1.48c.02.01.02.02.02.03a.076.076,0,0,1-.01.04A5.476,5.476,0,0,1,1391,1125.28Zm2.7-6.36a5.658,5.658,0,0,1,.22,1.53,5.253,5.253,0,0,1-.28,1.72.037.037,0,0,1-.06.02l-2.03-1.17Zm2.84-11.14a3.409,3.409,0,0,1,.56-.84h1.86l-3.83,3.76ZM1364.17,1090a.531.531,0,0,1,.47-.3.508.508,0,0,1,.42.22l1.45,2.03a45.013,45.013,0,0,0-.9,5.81,33.32,33.32,0,0,0-3.88-2.51Zm35.87,11.51c3.59-1.78,4.47-3.73,4.51-3.82a.292.292,0,0,0,.02-.09,1.7,1.7,0,0,0-.33-.99.652.652,0,0,0-.05-.2,4.1,4.1,0,0,1-.18-.42c-.17-.46-.38-1.02-1.1-1.08a37.5,37.5,0,0,1-4.14-1.34c-.88-.31-1.57-.56-1.85-.64a13.286,13.286,0,0,0-1.71-.38,6.723,6.723,0,0,0-1.2-.97c-.49-.35-1.05-.75-1.53-1.17-.36-.31-.8-.7-1.25-1.11a23.392,23.392,0,0,0-2.6-2.22.22.22,0,0,0-.08-.01c-.19,0-.33.19-.49.4-.02.03-.05.06-.07.09.57-1.31,1.17-2.6,1.76-3.88.23-.49.45-.98.67-1.46l36.28-6.41a.277.277,0,0,1,.09-.01.535.535,0,0,1,.52.41l.51,1.98a.527.527,0,0,1-.15.52l-26.64,26.18v-2.11A1.2,1.2,0,0,0,1400.04,1101.51Z" transform="translate(-1313.95 -993.157)"/>
</svg>
