<svg xmlns="http://www.w3.org/2000/svg" width="237.339" height="331.167" viewBox="0 0 237.339 331.167">
  <g id="Group_33" data-name="Group 33" transform="translate(-1129.9 -406.7)">
    <path id="Path_1" data-name="Path 1" d="M1364.6,475.8l-5.4-4.2v-6.8l4.3-4.5,6.8-2.3,3-.7,4.3-.4,5.9.3,2.6,1.1,2.2,1.2,2.7,2.4,2.5,5.1,2,8.8,8.7,15.2,3.7,8.9,3,9.7v14.5l-.8,3.8-6.8,4.6s-8.7,3.3-9.6,3.6a56.21,56.21,0,0,1-8.1,2.8l-3.2,2.3-12.3,1.5-13.3-1.6-7.4-.9,2.2,5.4-5.4,7.3s-6.1,7.9-6.1,8.3-5.4,8.3-5.4,8.3l-4.6,6.9-1.3,7,1.7,10.6s-.5,5.2-.5,7,.6,7.7.6,7.7l1.1,5.1.6,3.4,3.6,8.8,1.5,8.4,1.4,7.1,1.5,18.3-1.1,15.8-4.2,14.2-3.4,8.8-.9,8.6,1.8,18,.9,15.6-7.5,31.4-1.5,10.8-7.4,3.4-2.3-12.9-5.1-9.2-4.5-14.6,1.9-23.1-2.7-44.4-5.6-10.5-2.9-11.7-4.2,9.3-5.9,11.7-3.4,26.4,1,17.7,2.4,9.6-.3,11-3.2,14.6-9.2,25.9-7.5-1.4-5.9-31.8-2-36.5.6-17-3.6-13-5.4-27.2,3.7-27.3,6.5-25.2,3.8-13.1-5.5-25.5-8.6-9.4-8.7-11.9-6.1-8.2-14.4,2.9-17.9-3.3-19-6.3-6.1-7.3V514.2l2-11,5.5-12,6.5-11.6,3.8-11.5,1.1-4.4,2.3-2.9,2.8-2.3,2.3-1.3,3.1-.7,6-.2,7.3.9,3.4,1.2,3.4,2.2,2.2,2.5.7,2.8v2.8l-.5,3.2-4,3.2-2.4.8-3.7.8-2.9-.1-4.2-.4-3.1-2.2-2.8-.4v5.2l-.9,11.3,2,9.1,1.1,7.2,4-1.3,10.1-1,10.4,1.9,8,1.7,72.9,4.8,23-3.1,16.4-3.6,15.4-2,8.8,1.1,3.1,1.4,3.9-15.2.6-7.7-.9-6.5-2.8-4.3-2.1,1.1-1.4,1.7-3.1,1.1-4.4.7Z" transform="translate(-45.323 -48.533)" fill="#c50c18"/>
    <g id="Group_32" data-name="Group 32">
      <path id="Path_61" data-name="Path 61" d="M1350.3,509.6l-1.5,4.2-3.9,15.2-8.4,11.2-5.4,4.1-15.2,2-14.5-6.5-3.3-6.4-3.7-.7-5.7,9.4s-7,4.5-7.8,4.2-9.6.8-9.6.8l-11.1-4.2-10.3-9.7-6.3-11.6-2.8-4.6-.8-6.8-3.6-3,3.3-4,4.4-2.9H1261l5.1,1.5,6.1,2.7,3.3.6,4.2.6,2,.9-6.2-5.5,5.1-8.3,3.1-2.5,4.1,3.5,7.7,2.5a32.9,32.9,0,0,1,3.8-1.1,36.272,36.272,0,0,0,5-1.7c.4-.2,3.3-2.2,3.3-2.2l1.7-1.7-.3,6.9,2.8,3.3,4.2,3.1,6-1.5,5.3-1.1h10.2l8.7,2.2,7.9,3.7Z" transform="translate(-45.323 -48.533)" fill="#c50c18"/>
      <g id="Group_9" data-name="Group 9" transform="translate(-45.323 -48.533)">
        <path id="Path_62" data-name="Path 62" d="M1306.5,628.5c-2.3,3-4.4,5.8-6.5,8.7-2.8,3.8-3.2,8.2-3.2,12.7a58,58,0,0,0,4.4,22.9c.3.6.5,1.1,1.1,2.2.4-1.7.6-2.9.9-4.3,1.2,3,.7,6.5,3.4,9,1.2-2.5,1.4-5.3,3.5-7.3a112.1,112.1,0,0,0-1.9,11.1c-.4,4.7-1.1,9.5.3,14.1a52.652,52.652,0,0,1,1.6,7.9c.8,5.2,2.4,10.2,3.7,15.3.6,2.4,1.3,4.8,1.7,7.2a9.039,9.039,0,0,1-.2,2.8,2.143,2.143,0,0,0-.6-.1c-1.8-2.9-2.8-2.9-4.5.1-3.9,6.7-4.3,14-2.9,21.4a78.276,78.276,0,0,0,3.7,11.6c.5,1.2,1.9,2.9,2.9,2.9,1.7,0,1.7-2.1,2.1-3.5a20.066,20.066,0,0,1,1.1-3.8v27c-4.1-12.6-11.1-23.7-13.7-36.5-1.6-7.8-2-15.5.6-23.1a21.553,21.553,0,0,0,.7-13.3c-.7-2.2-.6-4.7-.7-7-.5-7.2-.9-14.4-1.5-21.6a22.5,22.5,0,0,0-1.5-5.8c-1.9-4.6-4-9.2-6-13.7-2.1,8.5-7.5,15.9-8.8,24.9-.8,6-1.7,11.9-.7,18a21.2,21.2,0,0,1-.6,7.5,17.273,17.273,0,0,0,.3,9.3c3.4,10.3,2.3,20.5-.9,30.6-2.4,7.4-5.4,14.5-8.1,21.8-1.1,2.9-2.1,5.8-3.2,8.8V758.8h.2c.5,2.1.9,4.2,1.6,6.3.2.7.9,1.7,1.3,1.7a2.586,2.586,0,0,0,1.9-1.3,89.786,89.786,0,0,0,4.6-12.2,30.281,30.281,0,0,0-1.3-19.9,27.068,27.068,0,0,0-2.1-3.7c-1.5-1.9-2.6-1.8-4,.2a6.373,6.373,0,0,0-.6.9c.6-10,6.2-18.5,5.8-28.7-.9.8-1.5,1.3-2.1,1.8a31.015,31.015,0,0,0,4.1-14.4c.2-5-.4-10-.7-15.2.6,1.5,1.2,3,1.8,4.8,2.4-2.9,1.1-6.3,2.2-9.5.6,1.7,1.1,3.1,1.7,4.7a30.156,30.156,0,0,0,4.9-11.4,59.064,59.064,0,0,0,.9-17.3,17.9,17.9,0,0,0-3.3-8.9c-2-2.7-4-5.3-6.1-8.1-1.5,11-3.3,21.8-7.7,31.9.3-5.9.7-11.8.9-17.8.3-6.5.4-13-.9-19.5a10.33,10.33,0,0,0-1.3-3.3c-1-1.6-2.8-1.4-3.7.2-.7,1.4-1.3,3-1.9,4.4-.2,0-.4-.1-.6-.1.2-1,.3-2,.5-3,.3-2,.8-4,.9-6,.2-2.7-.9-4.4-2.8-5-2.6-.8-5.4-.1-6.5,2.2a21.57,21.57,0,0,0-2.4,7.7,167.987,167.987,0,0,0-.5,18.8c2.7-5.2,4.7-10.8,9.2-14.8-8.6,17.9-9.1,35.8-.6,53.9,1.2-3.3,2.4-6.7,3.6-10a.349.349,0,0,1,.2.1c-.7,4-1.5,8-2,12-.5,4.2,0,8.4,2.7,12,.2.3.5.6.5.9.1.4-.1.8-.1,1.2-.4-.1-.9-.1-1.1-.4-1.7-2.3-3.3-4.6-4.9-6.9a15.859,15.859,0,0,1-.8-1.8c-.6,1.1-1.1,2-1.7,3.1-.7-5.3-1.2-10.3-2.1-15.3a54.117,54.117,0,0,0-2.1-7.9c-2.7-9-4.8-18.1-4.8-27.5-4.9,19.1-1.2,37.3,5.3,55.5q.9-1.2,1.5-2.1c.1,0,.2.1.3.2a5.632,5.632,0,0,1-.4,1.2,17.973,17.973,0,0,0,.4,13.3,8.209,8.209,0,0,0,8.3,5,16.175,16.175,0,0,0,4.1-1.7,7.977,7.977,0,0,1-3.2,5.6,44.991,44.991,0,0,1-4.5,3.1c-4.1,2.5-5.7,6.3-6.3,11-1.3,9.9,1,19.2,3.4,28.7a85.525,85.525,0,0,1,2.5,28.1c-.4-1.2-.8-2.3-1.1-3.5-2.2-9.2-4.3-18.3-6.4-27.5-1.3-5.5-2.9-11-3.9-16.6a54.617,54.617,0,0,1,1-23.8,41.93,41.93,0,0,0-.9-23.8c-2.1-6.5-3.9-13-5.4-19.7-2.1-9.4-1.2-18.8.3-28.3,1.5-9.2,2.9-18.3,4.6-27.5a28.11,28.11,0,0,1,2.2-7.5c3.7-7.9,3.5-16.1,2.7-24.4a33.063,33.063,0,0,0-7.5-17.7c-6.3-7.7-12.1-15.7-15.3-25.1-3.3,1-6.4,2.2-9.6,2.9-7.1,1.6-14.1.8-21-1.5-4.9-1.6-10-3-14.9-4.5-1.6-.5-3.2-1-4.7-1.5-6.4-2.4-9.5-7.1-10-13.8-.5-8.1,1.5-15.8,4.5-23.2a128.87,128.87,0,0,1,6.4-12.9,101.567,101.567,0,0,0,8.3-18.4c2.5-8.1,7.3-11.6,15.9-11.9a28.126,28.126,0,0,1,12.2,1.8,11.89,11.89,0,0,1,7.6,9.3c1.1,6.4-3.2,11.6-9.6,11.3a105.965,105.965,0,0,1-11.1-1.6c-.5-.1-.9-1-1.5-1.6-1.1.4-1.6,1.4-1.8,2.9-.8,6.4.2,12.6,1.6,18.8.6,2.7.8,5.5,1.2,8.4-.1,0,.1.1.1,0,7.6-4.1,15.3-3.1,23.1-.3a2.566,2.566,0,0,0,3.1-.5,10.067,10.067,0,0,1,3.3-2c8.3-3.5,16.7-5.2,25.6-2.5a13.184,13.184,0,0,0,8.1,0c3.8-1.2,5.9-4.1,6.3-8.4.3-4.2-.6-8.2-1.6-12.3a8.028,8.028,0,0,1-.4-3.1c1.8,3.1,3.5,6.5,5.6,9.4a28.094,28.094,0,0,0,6.1,6.3,12.7,12.7,0,0,0,17.6-2.8c2.1-2.8,3.3-6.1,4.9-9.2a32.618,32.618,0,0,1,1.8-3.8c-.4,3.5-.9,7-1.3,10.5-.3,2.6-.6,5.3-.8,8-.2,3.7,2,6.5,5.8,6.7a30.308,30.308,0,0,0,7.9-.8,35.454,35.454,0,0,1,28.2,4.5,3.015,3.015,0,0,0,2.1.1c6-2,12.1-3,18.4-1.9,2.3.4,4.5,1.4,6.7,2,1.4-6.6,3.1-13.5,4.3-20.4.7-3.6-.9-6.8-3.6-9.6-.5,1.7-1.8,1.9-3.2,2.1-1.8.2-3.6.8-5.4,1a15.661,15.661,0,0,1-10.4-1.9,7.056,7.056,0,0,1-3.5-7.9,13.53,13.53,0,0,1,7-9.4,23.2,23.2,0,0,1,18.2-2.4,14.291,14.291,0,0,1,9.7,8.2c1.4,3.3,2.3,6.7,3.6,10a62.619,62.619,0,0,0,4,8.7c3.8,6.5,7.8,13,10.1,20.3a43.257,43.257,0,0,1,1.6,20.5,14.188,14.188,0,0,1-8.6,11.4c-2.4,1-4.9,1.7-7.4,2.5-5.2,1.7-10.5,3.4-15.8,5-6.3,1.8-12.6,2.2-18.9.1-3.3-1.1-5.2-.5-6.9,2.6-4.8,8.4-10.5,16.2-16.1,24.1-6,8.4-7.5,18.1-6.5,28,.7,7.2,2.6,14.3,4.1,21.4,3,14.2,5.8,28.3,5.5,42.9a94.017,94.017,0,0,1-5.5,29.7,110.86,110.86,0,0,0-3.7,14,34.738,34.738,0,0,0,1.1,15.7c3.2,11.6,2.2,23-1.3,34.3-2.3,7.5-4.5,15.1-6.7,22.6-.5,1.6-.7,3.2-1.1,4.8a99.466,99.466,0,0,1,2.2-21.1c1.4-6.7,3-13.4,4.2-20.2a29.964,29.964,0,0,0-2.8-19.5c-.9-1.7-1.9-3-3.8-3.5-4.7-1.2-6.3-5.4-8.7-8.9-.1-.2-.1-.5-.2-.7a1.339,1.339,0,0,1,.1-.5c1.2.7,2.3,1.4,3.5,2,3.4,2,5.2,1.7,7.7-1.4,3.4-4.1,3.4-8.9,2.8-13.8a29.215,29.215,0,0,1-.6-4.4c.7.8,1.4,1.7,2.3,2.8,9.5-18,9.2-36.7,5.6-56.1-.3.4-.4.5-.4.6-.1,8.5-2,16.6-4.6,24.5-2.5,7.9-3.2,16-3.5,24.2,0,.6-.2,1.1-.3,2.1-1.4-1.3-2.5-2.4-3.8-3.5-1.6,3.8-3.7,7.1-7,9.4-.2-.1-.3-.2-.5-.3.2-.4.2-.8.4-1.1.6-.9,1.3-1.8,1.9-2.8,3-4.2,2.4-8.9,1.6-13.5-.5-2.7-.9-5.5-1.4-8.7,1.6,3.6,3,6.7,4.4,9.8.2,0,.4-.1.6-.1.2-.4.5-.7.7-1.1a51.2,51.2,0,0,0,4.2-32c-1.1-6-2.1-12-3.2-18.1,3,4.8,4.3,10.2,6.4,15.3q.15-1.95.3-3.9c.3-6.5.6-13-.9-19.3a28.662,28.662,0,0,0-3-6.7,3.968,3.968,0,0,0-4.8-1.9,5.04,5.04,0,0,0-3.2,5c.2,2.4.7,4.8,1.1,7.2a5.149,5.149,0,0,1,.1,1.8,48.709,48.709,0,0,0-3.3-4.3c-1.9-2.2-3.5-2-4,.8a75.446,75.446,0,0,0-1.6,13.4c.1,7.9.7,15.8,1.2,23.8a11.269,11.269,0,0,1,0,2.6,13.039,13.039,0,0,1-1.6-3.1c-1.6-6.1-3.2-12.1-4.6-18.2C1307.3,636.2,1307.1,632.5,1306.5,628.5Zm20.8-125.1c-6.2,2.5-12.4,4.9-19,5.6a1.422,1.422,0,0,1-.2-.6c2.2-1.6,4.3-3.1,6.7-4.9-3.5-1.9-6.4-3.9-7.4-8.1-1.8,3.7-3.2,6.8-4.7,9.9-.1,0-.3-.1-.4-.1.4-2.8.9-5.5,1.4-8.5-5.3,3.1-10.2,2.9-15.2-.5.9,2.9,1.8,5.7,2.6,8.4a.52.52,0,0,0-.4.2c-2.6-4.2-5.1-8.4-7.6-12.4-1.7,3-3.4,6-5.1,9.1,2.1,1.8,5,3.1,6.6,6.1-7.7-.3-15.1-2.2-22.4-4.4,1,0,2.1-.1,3.1-.1a16.59,16.59,0,0,0-4.1-1.4c-6.9-1.2-13.6-.9-19.7,3.1-2.9,1.9-3.7,1.9-1.6,5.5.1.2.1.4.3.9-.6-.3-1-.5-1.5-.7-3.9-1.5-7.7-3.2-11.6-4.3a22.332,22.332,0,0,0-12.8.3c-3.2,1-5.8,2.8-6.6,6.5-.3,1.5-1.5,2.9-2.2,4.4-.1-.1-.3-.1-.4-.2,3.9-6.3.9-19.3-1.4-25.4-.4,1.1-.7,2.1-1,3.1.6-5.9,2.7-11.5,2.1-17.5-.2-.1-.5-.1-.7-.2-1.9,4.3-3.8,8.5-5.8,13.1-.2-.7-.5-1.1-.4-1.4,1.1-6.3,2.3-12.7,3.4-19.1,1.4,1,2.5,2,3.7,2.8,1.2.7,2.1.2,2.2-1.2a16.682,16.682,0,0,0-.2-3.2c.9.5,2,1.1,3.1,1.7a30.866,30.866,0,0,0,.9,4.6,3.263,3.263,0,0,0,2.1,1.7,1.9,1.9,0,0,0,2.1-2.1,19.728,19.728,0,0,0-.2-4.2c-.2-1.8-.6-3.5-.9-5.2a2.608,2.608,0,0,1,.9,1.7c.6,2.9,1.1,5.8,1.8,8.7.2.7,1,1.3,1.5,1.9a11.85,11.85,0,0,0,2.2-2.3,4.083,4.083,0,0,0-.2-2.4c-.3-1.6-.8-3.1-1.1-4.7a14.722,14.722,0,0,1,0-2.1c.2,0,.3,0,.4-.1.3.9.5,1.8.8,2.6.6,2,1.1,4.1,1.9,6.1a2.039,2.039,0,0,0,1.6,1,1.923,1.923,0,0,0,1.1-1.5,17.37,17.37,0,0,0-.5-3.9c-.4-1.9-.9-3.9-1.4-5.8a26.382,26.382,0,0,1,2.3,4.4c.8,1.4,1.7,2.7,2.7,4.2,3.9-6.4-1.8-13.4-10.7-13.9a5.639,5.639,0,0,1,.4,1.2c-3.7-.6-7.3-1.3-10.8-1.9,0,.1-.1.3-.1.4,1.4.8,2.8,1.6,4.2,2.5-.1.2-.2.3-.2.5-1.4-.5-2.9-.9-4.3-1.5-2.4-1.1-4.4-.5-6.4,1-3.2,2.4-4.4,5.9-5,9.5a55.306,55.306,0,0,1-8,21.1,101.706,101.706,0,0,0-7.1,14.9,23.816,23.816,0,0,0,.2,18.7c.2.5.4.9.6,1.5-.7-.2-1.2-.4-1.8-.6.9,3.6,4.7,5.3,10.3,4.7-.7.4-1.2.7-1.8,1.1,7.5,5.3,14.4,2.2,21.2-1.2.1.2.2.3.3.5-1.4,2.1-2.8,4.2-4.5,6.7,1.8.7,3.5,1.6,5.4,2.2a28.894,28.894,0,0,0,13.4.4c7.5-1.3,14.7-3.2,20.6-8.4a2.568,2.568,0,0,0,.8-2c-.5-2.9-2.1-4.1-4.9-3.8-6.9.9-13.8,1.9-20.8,3-2,.3-4,.7-6.4,1.1,1.1-1.3,1.8-2.3,2.5-3.2-2.2-1.5-4.3-2.9-6.5-4.3a34.654,34.654,0,0,0,18.5,2.4c4.4-.6,8.5-2,11.6-5.5.6-.7,1.3-2,1.7-1.9a6.567,6.567,0,0,1,2.3,1.8,24.034,24.034,0,0,1,2.1,2.4,27.33,27.33,0,0,0,3.3,3.5,13.278,13.278,0,0,1,4.2,5.2,75.15,75.15,0,0,0,4.3,7.9,11.432,11.432,0,0,0,3.1,3.1,23.829,23.829,0,0,0,19.9,3.1c6.5-1.9,11.7-5.5,14.5-12-1.1,6.6-3.7,12.3-10.1,15.5,3.7,1.6,7.2,3.1,10.7,4.7-1.8.8-2.2,1.1-7.2.1-6.6-1.4-15.2,5.9-14.8,13.4.2,3.4,1.7,5.3,5.1,5.8a35.4,35.4,0,0,0,4.6.2c2.5,0,5-.1,7.5,0,2.1.1,3.1,1,3.3,2.6a21.9,21.9,0,0,0-14.5.9c-2.5,1-4.2,2.5-4.2,5.5,0,3.2.9,5.9,4,7.3a15.771,15.771,0,0,0,3.7,1.1c3.2.5,6.3.9,9.5,1.5a3.2,3.2,0,0,1,2.9,2.2,17.31,17.31,0,0,0-13.4.4,4.284,4.284,0,0,0-3,4.9c.6,5.9,5.7,11.6,11.4,13,3,.7,4,.3,5.1-3.2a11.532,11.532,0,0,0,.3-2.6,12.549,12.549,0,0,1,.7-2.6c.1-.3.6-.5.9-.7.1.4.3.8.4,1.2a61.983,61.983,0,0,0,.6,6.2c.3,1.6,1.6,2.1,3.1,1.8a21.541,21.541,0,0,0,12.5-7.6c3.9-5,1.9-10.2-4.3-11.2a24.091,24.091,0,0,0-11,.4,9.848,9.848,0,0,1,3-2c1.4-.4,2.9-.5,4.4-.8,2.7-.5,5.4-.7,8-1.4,3.1-.8,4.5-3.2,4.8-6.3.3-3.3-.8-5.7-3.8-7.2-4.8-2.3-9.8-3.5-15-.8a3.87,3.87,0,0,1,3.8-2.5c3.8-.1,7.6-.1,11.4-.3,3.6-.2,5.5-2.2,5.3-5.8a14.7,14.7,0,0,0-1.5-5.9c-3-5.8-8.4-8.3-14.9-7.3-1.8.3-3.6.8-5.4-.2,3-1.3,5.9-2.7,8.9-4-5.4-3.8-8.2-9-9.5-15.2a43.089,43.089,0,0,0,4.3,5c8,7.2,22.2,8.3,31.5,2.7,3.4-2,5.3-5.1,6.8-8.6a34.364,34.364,0,0,1,2.5-5.1c2.1-3.7,4.7-7.1,5.3-11.5a9.718,9.718,0,0,1,.9-1.7,18.31,18.31,0,0,0,1.1,2.6c.7,1.1,1.3,2.5,2.3,3a32.133,32.133,0,0,0,22.1,4.1,52.545,52.545,0,0,0,5.8-1.7c-.8.7-1.4,1.1-1.9,1.5l-1.8,1.5c-2.2,2.1-2.1,3,.6,4.3a1.755,1.755,0,0,1,.5.4h-.8c-5.6-1.3-11.2-2.6-16.8-4a18.079,18.079,0,0,0-10.8.6c-2.3.8-3.4,5.1-1.7,6.4,2.8,2,5.5,4.2,8.7,5.4a40.8,40.8,0,0,0,20.5,2.3,21.306,21.306,0,0,0,8.4-2.7c-1-1.6-1.9-3-2.8-4.5.1-.1.3-.2.4-.4,2,1.4,4.2,2.6,6.7,2.1a27.457,27.457,0,0,0,4.9-1.4c3.5-1.3,6.8-3.2,10.7-3.6,1.3-.1,2.6-1.1,3.7-1.9a7.854,7.854,0,0,0,1.6-2.3c-.1-.1-.2-.2-.3-.2-.4.2-.9.3-1.5.6a7.778,7.778,0,0,0,1.4-2.7,50.121,50.121,0,0,0-.4-16.4c-1.3-7-4.7-13.1-8.8-18.8a34.354,34.354,0,0,1-6.7-16.8,24.957,24.957,0,0,0-1.7-6.5c-2.1-5.2-5.8-6.8-10.9-4.9-1,.4-2,.6-3,.9-.1-.2-.1-.3-.2-.5l4.2-2.4a4.332,4.332,0,0,1-.1-.5c-3.6.7-7.2,1.4-11,2.1.3-.5.5-.9.8-1.5-4.6.7-9,1.4-11.1,6.1a9.367,9.367,0,0,0-.1,7.7c2.8-2.6,3.6-5.8,5.3-8.6a21.635,21.635,0,0,1-.4,2.5c-.5,2.1-1.1,4.3-1.5,6.4-.2,1.1-.1,2.4,1.2,2.5.6,0,1.7-1,2-1.7a59.854,59.854,0,0,0,1.6-6.4,7.581,7.581,0,0,1,.6-1.6c.2.1.4.1.6.2-.3,1.8-.7,3.5-1,5.3-.2,1.2-.8,2.5-.5,3.6.2.9,1.4,1.7,2.1,2.5a9.349,9.349,0,0,0,1.6-2,16.676,16.676,0,0,0,.5-3.1c.5-2.5,1.2-4.9,1.7-7.3.2,0,.3.1.5.1-.2,1.4-.5,2.8-.7,4.2a47.266,47.266,0,0,0-.4,5.3c0,1.2.8,2.4,2.1,2.2a3.3,3.3,0,0,0,2.2-1.8,28.421,28.421,0,0,0,1-4.9c1.6,1,1.9-1.1,3.1-1.4a6.152,6.152,0,0,0-.2,1.9c.1.8.3,1.9.9,2.3.4.3,1.6-.1,2.2-.5a24.838,24.838,0,0,0,2.5-1.8c-.9,2.8,0,5.1,1.1,7.3,2.3,4.4,2.5,9.2,2.4,14a10.269,10.269,0,0,1-.5,2.4h-.6c-1.2-4.8-1.2-9.9-4.9-13.8.6,5.2,1.3,10.4,1.9,15.5h-.3a13.76,13.76,0,0,1-.8-1.7c-.6,2.3-1.1,4.3-1.8,6.3-2.3,6.9-.8,13,3.6,18.7.3.3.4.7.9,1.4a11.865,11.865,0,0,1-6.8-7.3c-1.4-3.7-4.2-5.6-7.8-6.6a25.414,25.414,0,0,0-14.2.5c-3.4,1.1-6.7,2.5-10.1,3.7l-.2-.2,2.4-2.1c-5.3-6.4-22.5-9.4-27.9-4.8A10.882,10.882,0,0,1,1327.3,503.4Zm-70.6,42.4c-1,4.5-2.2,8.8-2.8,13.2a4.7,4.7,0,0,0,2,3.8c1.4.9,2.2-.9,2.9-1.9,1.7-2.3,3.3-4.7,4.9-7a25.3,25.3,0,0,0,1.3-2.2,5.01,5.01,0,0,1,.8.7c-1.5,5-3.2,10-3.2,15.3,2.2-3.1,3.8-6.6,5.9-9.6,2.2-3.1,4.8-5.9,7.1-8.7-2.3.7-5,1.5-8,2.5.5-1.1.8-1.8,1.2-2.7-1.7-.5-3.2-1.1-4.7-1.5-3.8-.9-6.9-2.7-8.6-6.4a6.01,6.01,0,0,0-.9-1.3,6.305,6.305,0,0,0-9.9-.1c-3.3,3.8-2.3,9.2,2.2,12.1,2,1.3,3.5,1.1,5-.7.9-1.2,1.7-2.6,2.6-3.8C1254.9,546.4,1255.6,545.5,1256.7,545.8Zm79.8-.3a27.961,27.961,0,0,1,2.5,2.2c1.1,1.4,2,2.9,3.2,4.3.7.8,1.7,1.7,2.8.7a49.968,49.968,0,0,0,4.5-4.7c.2-.2.2-.7.2-1a28.62,28.62,0,0,0-1.6-5.2c-1.1-2.4-3.3-3.3-5.9-2.8a7.8,7.8,0,0,0-5.3,3.9,7.118,7.118,0,0,1-5.1,3.5c-1.5.3-3,.6-4.5,1-1,.3-2,.7-3.1,1,.6,1.1,1,1.9,1.7,3.2-3.1-.9-5.7-1.7-8.2-2.5a42.838,42.838,0,0,1,4,4.5c2.4,3.6,4.5,7.3,6.8,11,.7,1.2,1.4,2.8,3.1,2.2.4-.2.5-2.3.2-3.3-1.1-3.2-2.4-6.3-3.6-9.5-.2-.6-.5-1.3-.7-1.9.1-.1.3-.2.4-.3.5.5,1.1.8,1.4,1.4,1.2,1.7,2.3,3.6,3.6,5.3a34.4,34.4,0,0,0,2.8,3.6c.7.8,1.9,1,2.4,0,.7-1.2,1.5-2.7,1.3-3.8C1338.7,554.3,1337.6,550.1,1336.5,545.5Zm-62.7,11a14.654,14.654,0,0,0-6.3,7.8c-2,5.3-2.1,10.8-1.5,16.3a2.815,2.815,0,0,0,.6,1.5c2,2,1.7,4,.2,6.1a7.534,7.534,0,0,0-.6,1.3,8.8,8.8,0,0,0-.2,7.9c2.4,4.6,6.4,7.4,11.1,9.6a2.6,2.6,0,0,0,.4-1,20.691,20.691,0,0,0-4.1-13.6,3.2,3.2,0,0,0-2.1-1.2c-1.3-.2-1.6-.8-1.5-1.9,2.3.1,3.1-.3,3.6-2.5a23.947,23.947,0,0,0,.5-6c-.2-3.2-1.4-4.1-4.6-4.2a8.139,8.139,0,0,1-.9-.2c.3-.8.4-1.7.7-2.4a20.884,20.884,0,0,0,2.2-8.9A14.171,14.171,0,0,1,1273.8,556.5Zm49.5,32.7c.1.2.2.3.3.5-.5.5-.9,1.3-1.4,1.4a4.033,4.033,0,0,0-3.3,2.7,70.759,70.759,0,0,0-3.1,8.8c-.2.9.6,2.2,1.2,3.1.2.2,1.6-.3,2.3-.6.8-.3,1.5-.9,2.3-1.3,6.9-4,7.3-10.9,4-17.2a5.985,5.985,0,0,1-.4-3.5c.3-2,1-4,1.5-6,1.6-6.4.1-12.2-3.8-17.4a38.543,38.543,0,0,0-3.5-3.5c-.1.1-.3.2-.4.3a11.838,11.838,0,0,1,2.9,8.4,20.469,20.469,0,0,0,1.8,8.4,28.121,28.121,0,0,1,1,3.1,6.533,6.533,0,0,1-1.1.2c-2.7,0-3.9.8-4.2,3.5a34.814,34.814,0,0,0,.4,7.2A2.605,2.605,0,0,0,1323.3,589.2Z"/>
        <path id="Path_63" data-name="Path 63" d="M1298.8,534.8c-2.5-8.3-1.4-16.8-.5-25.2A44.99,44.99,0,0,1,1298.8,534.8Z"/>
        <path id="Path_64" data-name="Path 64" d="M1298,558.4V538.5h.9C1300.8,544.9,1301.2,551.3,1298,558.4Z"/>
        <path id="Path_65" data-name="Path 65" d="M1302.4,566.6c-2.9,1.5-5,2.7-7,.8-.4-.4.4-3,1.3-3.5C1299.7,562.1,1299.9,565.8,1302.4,566.6Z"/>
        <path id="Path_66" data-name="Path 66" d="M1297.6,583.4c.2-2.6.4-5.2.7-7.8h.8v7.7A7.57,7.57,0,0,1,1297.6,583.4Z"/>
      </g>
    </g>
  </g>
</svg>
