<?xml version="1.0" encoding="utf-8"?>
<!-- Generator: Adobe Illustrator 24.1.2, SVG Export Plug-In . SVG Version: 6.00 Build 0)  -->
<svg version="1.1" id="Layer_1" xmlns="http://www.w3.org/2000/svg" xmlns:xlink="http://www.w3.org/1999/xlink" x="0px" y="0px"
	 viewBox="0 0 2000 2000" style="enable-background:new 0 0 2000 2000;" xml:space="preserve">
<style type="text/css">
	.st0{opacity:0.43;fill:#F99A2B;}
	.st1{fill:#E99C2D;}
	.st2{fill:#F67D1B;}
	.st3{fill:#DB6C19;}
	.st4{fill:#DADADA;}
	.st5{fill:#E3E3E1;}
	.st6{fill:#834B10;}
	.st7{fill:#FAB440;}
	.st8{fill:#B5544F;}
	.st9{fill:#A45F16;}
	.st10{fill:#C28325;}
	.st11{fill:#FAD497;}
	.st12{fill:#985916;}
</style>
<rect y="0" class="st0" width="2000" height="2000"/>
<g>
	<path class="st1" d="M246.83,1273.03c-16.52-0.1-33.05-0.19-49.57-0.29c-3.55-0.02-7.44,0.78-7.33-5.03
		c0.8-42.29-3.14-84.84,4.69-126.78c15.07-80.76,58.86-141.5,130.4-181.72c38.98-21.91,81.42-31.73,126.1-31.74
		c152.66-0.03,305.32,0,457.98-0.03c13.86,0,27.57,1.58,41.31,3.04c0.59,2.9,1.47,5.78,1.72,8.72c2.08,24.97,4.04,49.94,6.03,74.91
		c-1.14,7.57,1,14.93,1.54,22.39c2.42,33.19,5.01,66.38,7.64,99.55c3.51,44.24,7.12,88.46,10.68,132.69
		c-2.19,6.51-7.71,3.45-11.56,3.45c-235.7,0.17-471.4,0.15-707.09,0.18C255.19,1272.39,251.01,1272.81,246.83,1273.03z
		 M451.4,1014.13c-9.42,0-17.23,0.13-25.03-0.05c-4.17-0.1-5.94,1.42-5.91,5.73c0.13,15.31,0.18,30.62-0.03,45.92
		c-0.07,4.83,1.88,6.19,6.41,6.14c15.01-0.18,30.02-0.25,45.03,0.03c5.49,0.1,6.54-2.42,6.39-7.11c-0.24-7.5,0.13-15.01-0.11-22.51
		c-0.29-8.94,3.79-20.5-1.57-26.12C470.73,1010.04,458.93,1015.13,451.4,1014.13z M651.25,1041.04c0,9.05,0.23,16.56-0.08,24.05
		c-0.21,5.06,1.6,6.89,6.71,6.8c14.71-0.24,29.42-0.21,44.13-0.01c4.77,0.07,7.12-1.06,7.02-6.46c-0.28-15-0.22-30.02-0.03-45.02
		c0.06-4.62-1.51-6.49-6.24-6.34c-7.8,0.25-15.61-0.14-23.41,0.11c-8.94,0.28-20.54-3.8-26.1,1.59
		C647.21,1021.62,652.23,1033.42,651.25,1041.04z M881.97,1040.95c0,8.99,0.21,16.5-0.07,23.99c-0.18,4.9,1.31,7.04,6.58,6.96
		c15-0.25,30.01-0.22,45.02-0.01c4.71,0.07,6.41-1.62,6.24-6.28c-0.26-7.19,0.15-14.41-0.12-21.6c-0.35-9.53,4.03-21.74-1.71-27.85
		c-5.84-6.21-18.18-1.74-27.65-1.9c-8.93-0.15-20.49-3.84-26.15,1.43C877.87,1021.47,883.03,1033.3,881.97,1040.95z M593.57,1101.76
		c0-7.81-0.24-15.62,0.08-23.41c0.22-5.23-1.93-6.7-6.88-6.63c-14.71,0.23-29.42,0.23-44.13,0c-4.96-0.08-6.96,1.44-6.87,6.64
		c0.26,14.71,0.3,29.42-0.02,44.13c-0.13,5.68,2.02,7.19,7.36,7.09c14.41-0.28,28.82-0.28,43.23,0c5.36,0.1,7.66-1.44,7.33-7.11
		C593.27,1115.58,593.57,1108.66,593.57,1101.76z M794.36,1129.48c8.84,0,16.05-0.23,23.24,0.08c5.03,0.22,6.88-1.53,6.79-6.68
		c-0.26-14.7-0.21-29.41-0.02-44.11c0.06-4.75-1.08-7.15-6.47-7.06c-15,0.26-30.01,0.2-45.01,0.03c-4.61-0.05-6.49,1.53-6.34,6.25
		c0.25,7.49-0.13,15.01,0.11,22.5c0.29,9.23-3.92,21.26,1.64,26.95C774.32,1133.62,786.53,1128.53,794.36,1129.48z"/>
	<path class="st1" d="M1066.67,1848.77c-3,0.14-5.99,0.41-8.99,0.41c-181.17,0.02-362.34,0.02-543.5,0.01
		c-2.4,0-4.79-0.19-7.19-0.28c0.01-35.41-0.18-70.82,0.19-106.22c0.08-7.28-2.21-9.29-9.21-9.02c-13.19,0.5-26.42,0.49-39.6,0
		c-6.99-0.26-9.29,1.74-9.22,9.02c0.38,35.41,0.19,70.82,0.2,106.22c-19.26,0-38.51,0-57.77,0c0.01-35.41-0.18-70.82,0.19-106.22
		c0.08-7.26-2.2-9.29-9.21-9.03c-13.18,0.5-26.42,0.49-39.6,0c-6.99-0.26-9.3,1.73-9.22,9.02c0.38,35.4,0.19,70.81,0.2,106.22
		c-45.9,0.1-91.8,0.12-137.7,0.41c-5.43,0.03-6.38-2.12-6.37-6.9c0.12-62.7,0.14-125.41-0.03-188.11c-0.02-5.51,1.45-7.15,7.06-7.05
		c16.79,0.32,33.6,0.01,50.4-0.06c4.21,0.05,8.41,0.16,12.62,0.16c244.64,0.01,489.28,0.01,733.92,0c4.81,0,9.61-0.09,14.42-0.14
		c0.6,2.92,1.51,5.81,1.74,8.76c3.22,40.93,6.1,81.89,9.66,122.79c0.9,10.36,0.83,20.96,4.33,31.05
		C1031.2,1830.55,1046.42,1842.38,1066.67,1848.77z"/>
	<path class="st2" d="M1066.67,1848.77c-20.25-6.38-35.47-18.21-42.68-38.96c-3.51-10.09-3.43-20.69-4.33-31.05
		c-3.56-40.9-6.44-81.86-9.66-122.79c-0.23-2.95-1.15-5.84-1.74-8.76c0.22-21.01-2.76-41.81-4.52-62.68
		c-0.67-7.97,0.77-16.24-2.41-23.96c0.06-16.78-2.23-33.38-3.64-50.06c-3.16-37.51-6.25-75.03-9.36-112.55
		c1.16-8.48-1.07-16.75-1.68-25.11c-2.39-32.91-5.23-65.78-7.91-98.66c0.5-1.9,0.71-3.77-0.72-5.42
		c-3.57-44.23-7.17-88.46-10.68-132.69c-2.63-33.18-5.22-66.36-7.64-99.55c-0.54-7.46-2.69-14.82-1.54-22.39
		c70.81,0.05,141.62,0.09,212.42,0.13c0.03,4.51,0.08,9.01,0.08,13.52c0.02,273.69,0.04,547.38,0.05,821.08
		C1136.04,1848.82,1101.35,1848.79,1066.67,1848.77z"/>
	<path class="st3" d="M1727.63,1014.68c-3.08,10.81-1.97,22.03-2.92,33.02c-5.47,63.39-10.17,126.84-15.25,190.26
		c-5.95,74.19-12.01,148.37-18.03,222.55c-5.39,66.41-10.78,132.81-16.17,199.21c-3.62,44.57-7.17,89.14-10.85,133.71
		c-2.81,33.97-26.68,55.76-60.95,55.74c-28.84-0.01-57.69-0.11-86.53-0.18c-1.23-278.28,2.18-556.56-1.83-834.83
		c9.99-0.23,19.98-0.47,29.98-0.7c3.89,0.18,7.77,0.5,11.66,0.51c53.39,0.03,106.78,0.01,160.17,0.05
		C1720.48,1014.03,1724.06,1014.46,1727.63,1014.68z"/>
	<path class="st2" d="M1515.1,1014.17c4.01,278.27,0.6,556.56,1.83,834.83c-58.35-0.05-116.71-0.1-175.06-0.16
		c0.02-166.14,0.03-332.29,0.05-498.43c0.02-112.06,0.06-224.13,0.1-336.19c6.27-0.04,12.55-0.09,18.82-0.11
		c41.83-0.15,83.66-0.29,125.5-0.44C1495.92,1013.84,1505.51,1014.01,1515.1,1014.17z"/>
	<path class="st3" d="M1342.02,1014.22c-0.03,112.06-0.08,224.13-0.1,336.19c-0.03,166.14-0.04,332.29-0.05,498.43
		c-57.05,0-114.09,0-171.14,0c-0.02-273.69-0.03-547.38-0.05-821.08c0-4.51-0.06-9.01-0.08-13.52
		C1227.73,1014.25,1284.87,1014.23,1342.02,1014.22z"/>
	<path class="st4" d="M939.83,783.5c-0.03-73.92,0.07-147.85-0.27-221.77c-0.04-8.07,3.05-9.16,10-9.16
		c178.82,0.17,357.63,0.15,536.45,0.16c0,0,0.87-0.12,0.87-0.12c-0.16,0.58-0.46,1.15-0.46,1.73c0.04,76.42,0.1,152.84,0.17,229.25
		l-0.66-0.17C1303.89,783.45,1121.86,783.47,939.83,783.5z"/>
	<path class="st5" d="M939.83,783.5c182.03-0.03,364.06-0.05,546.1-0.08c0.1,3.59,0.28,7.18,0.28,10.78
		c0.06,73.16,0.09,146.32,0.13,219.48c-41.83,0.15-83.66,0.29-125.5,0.44c-6.27,0.02-12.55,0.07-18.82,0.11
		c-57.14,0.01-114.28,0.02-171.43,0.03c-70.81-0.04-141.62-0.09-212.43-0.13c-2-24.97-3.96-49.95-6.03-74.92
		c-0.24-2.93-1.13-5.82-1.72-8.72c0-21.48-2.82-42.74-4.79-64.08c-1.59-17.2-3.15-34.43-3.82-51.68
		C941.39,804.29,938.63,794.02,939.83,783.5z"/>
	<path class="st6" d="M988.33,1397.95c3.12,37.52,6.2,75.04,9.36,112.55c1.41,16.67,3.7,33.28,3.64,50.06
		c-3.9,0.06-7.81,0.18-11.71,0.18c-243.05,0.01-486.11,0.01-729.16,0c-4.21,0-8.41-0.1-12.62-0.15
		c0.01-57.18,0.03-114.37,0.04-171.54c0.97,0.05,1.94,0.09,2.91,0.13c50.41,0.1,100.82,0.27,151.23,0.27
		c140.74,0,281.49-0.07,422.23-0.12c2.47,2.14,5.09,4.15,7.4,6.45c23.81,23.74,47.88,47.24,71.16,71.49
		c6.56,6.83,9.75,6.02,15.88-0.24C941.56,1443.66,965.07,1420.92,988.33,1397.95z"/>
	<path class="st7" d="M988.33,1397.95c-23.26,22.98-46.77,45.72-69.64,69.08c-6.13,6.26-9.33,7.07-15.88,0.24
		c-23.28-24.25-47.35-47.75-71.16-71.49c-2.31-2.31-4.92-4.31-7.4-6.45c-2.84-2.57-6.31-1.42-9.49-1.42
		c-184.79-0.06-369.58-0.06-554.36-0.01c-3.22,0-6.65-0.9-9.61,1.28c-0.97-0.04-1.94-0.08-2.91-0.13
		c-0.16-38.35-0.33-76.69-0.49-115.03c3-0.07,6-0.19,9-0.19c237.79-0.01,475.58-0.01,713.36,0.01c3,0,5.99,0.23,8.99,0.35
		c2.67,32.88,5.52,65.76,7.91,98.66C987.26,1381.2,989.49,1389.47,988.33,1397.95z"/>
	<path class="st8" d="M247.85,1560.58c4.21,0.05,8.41,0.15,12.62,0.15c243.05,0.01,486.11,0.01,729.16,0c3.9,0,7.81-0.12,11.71-0.18
		c3.18,7.73,1.74,16,2.41,23.96c1.76,20.87,4.74,41.67,4.52,62.68c-4.81,0.05-9.61,0.14-14.42,0.14
		c-244.64,0.01-489.28,0.01-733.92,0c-4.21,0-8.41-0.1-12.62-0.16C247.48,1618.32,247.66,1589.45,247.85,1560.58z"/>
	<path class="st4" d="M1544.88,552.73c63.89-0.01,127.78,0.04,191.67-0.14c6.43-0.02,9.58,0.85,9.55,8.64
		c-0.33,74.08-0.25,148.17-0.28,222.25c-66.75,0.03-133.51,0.05-200.26,0.08c-0.41-0.1-0.83-0.17-1.25-0.18
		c0.05-75.42,0.11-150.85,0.13-226.27c0-1.47-0.4-2.95-0.62-4.42C1544.18,552.67,1544.53,552.69,1544.88,552.73z"/>
	<path class="st5" d="M1545.56,783.56c66.75-0.03,133.51-0.05,200.26-0.08c-1.68,19.91-3.4,39.82-5.01,59.74
		c-1.37,16.97-2.55,33.95-3.94,50.91c-2.27,27.65-4.72,55.29-6.92,82.95c-0.99,12.52-1.56,25.07-2.32,37.6
		c-3.58-0.23-7.15-0.65-10.73-0.65c-53.39-0.04-106.78-0.02-160.17-0.05c-3.89,0-7.77-0.33-11.66-0.5
		c0.03-54.49,0.02-108.99,0.1-163.48C1545.21,827.85,1545.43,805.7,1545.56,783.56z"/>
	<path class="st9" d="M1791.78,150.7c1.45,0.03,2.9,0.06,4.35,0.1c4.29,15.21,8.08,30.59,13.09,45.57
		c2.48,7.42,1.16,9.87-6.42,12.12c-83.78,24.96-167.43,50.37-251.17,75.5c-5.22,1.57-7.59,3.42-7.58,9.55
		c0.25,84.03,0.16,168.06,0.2,252.09c0,2.37,0.41,4.74,0.62,7.11c-0.35-0.05-0.7-0.06-1.05-0.05c-18.98-0.02-37.97-0.05-56.95-0.07
		c0,0-0.87,0.12-0.87,0.12c0.17-3.58,0.48-7.17,0.48-10.75c0.03-89.76,0.02-179.52,0.02-269.28c0-22.9,6.07-31.07,28.02-37.67
		c89.75-26.97,179.51-53.93,269.25-80.96C1786.52,153.24,1789.72,153.24,1791.78,150.7z"/>
	<path class="st10" d="M333.94,1848.89c-0.01-35.41,0.18-70.82-0.2-106.22c-0.08-7.29,2.23-9.28,9.22-9.02
		c13.19,0.49,26.42,0.5,39.6,0c7.01-0.27,9.28,1.76,9.21,9.03c-0.37,35.4-0.18,70.81-0.19,106.22
		C372.36,1848.89,353.15,1848.89,333.94,1848.89z"/>
	<path class="st10" d="M449.34,1848.89c-0.01-35.41,0.18-70.82-0.2-106.22c-0.08-7.28,2.22-9.28,9.22-9.02
		c13.19,0.49,26.42,0.5,39.6,0c7-0.26,9.29,1.74,9.21,9.02c-0.37,35.41-0.18,70.82-0.19,106.22
		C487.77,1848.89,468.56,1848.89,449.34,1848.89z"/>
	<path class="st11" d="M978.75,1274.18c-3-0.12-5.99-0.35-8.99-0.35c-237.79-0.02-475.58-0.02-713.36-0.01c-3,0-6,0.12-9,0.19
		c-0.36-0.23-0.55-0.55-0.56-0.98c4.18-0.22,8.36-0.65,12.54-0.65c235.7-0.03,471.4-0.01,707.09-0.18c3.86,0,9.37,3.06,11.56-3.45
		C979.45,1270.41,979.24,1272.27,978.75,1274.18z"/>
	<path class="st11" d="M451.4,1014.13c7.53,1.01,19.33-4.09,25.17,2.03c5.36,5.61,1.28,17.18,1.57,26.12
		c0.24,7.5-0.13,15.01,0.11,22.51c0.15,4.7-0.9,7.22-6.39,7.11c-15-0.28-30.02-0.21-45.03-0.03c-4.52,0.05-6.48-1.31-6.41-6.14
		c0.22-15.31,0.17-30.62,0.03-45.92c-0.04-4.31,1.73-5.83,5.91-5.73C434.17,1014.26,441.98,1014.13,451.4,1014.13z"/>
	<path class="st11" d="M651.25,1041.04c0.97-7.61-4.05-19.42,2-25.28c5.56-5.39,17.17-1.3,26.1-1.59c7.8-0.25,15.61,0.14,23.41-0.11
		c4.72-0.15,6.29,1.72,6.24,6.34c-0.19,15.01-0.25,30.02,0.03,45.02c0.1,5.4-2.25,6.53-7.02,6.46c-14.71-0.2-29.42-0.23-44.13,0.01
		c-5.11,0.08-6.92-1.74-6.71-6.8C651.48,1057.6,651.25,1050.08,651.25,1041.04z"/>
	<path class="st11" d="M881.97,1040.95c1.05-7.65-4.11-19.48,2.12-25.27c5.67-5.27,17.22-1.59,26.15-1.43
		c9.47,0.16,21.81-4.31,27.65,1.9c5.74,6.11,1.36,18.32,1.71,27.85c0.26,7.19-0.15,14.41,0.12,21.6c0.17,4.66-1.53,6.34-6.24,6.28
		c-15-0.21-30.01-0.24-45.02,0.01c-5.27,0.09-6.76-2.05-6.58-6.96C882.18,1057.44,881.97,1049.93,881.97,1040.95z"/>
	<path class="st11" d="M593.57,1101.76c0,6.9-0.3,13.83,0.1,20.71c0.33,5.67-1.97,7.21-7.33,7.11c-14.41-0.28-28.82-0.28-43.23,0
		c-5.34,0.1-7.48-1.41-7.36-7.09c0.33-14.7,0.28-29.42,0.02-44.13c-0.09-5.2,1.91-6.72,6.87-6.64c14.71,0.23,29.42,0.23,44.13,0
		c4.94-0.08,7.09,1.4,6.88,6.63C593.33,1086.14,593.57,1093.95,593.57,1101.76z"/>
	<path class="st11" d="M794.36,1129.48c-7.83-0.95-20.04,4.14-26.07-2.03c-5.55-5.69-1.35-17.72-1.64-26.95
		c-0.24-7.49,0.15-15.01-0.11-22.5c-0.16-4.72,1.73-6.31,6.34-6.25c15,0.18,30.01,0.24,45.01-0.03c5.39-0.09,6.53,2.31,6.47,7.06
		c-0.19,14.7-0.24,29.41,0.02,44.11c0.09,5.15-1.76,6.89-6.79,6.68C810.41,1129.25,803.2,1129.48,794.36,1129.48z"/>
	<path class="st12" d="M1545.56,783.56c-0.13,22.15-0.35,44.29-0.38,66.44c-0.08,54.49-0.07,108.99-0.1,163.48
		c-9.99,0.23-19.99,0.46-29.98,0.7c-9.59-0.16-19.17-0.33-28.76-0.49c-0.04-73.16-0.08-146.32-0.14-219.48
		c0-3.59-0.18-7.18-0.28-10.78c0,0,0.66,0.17,0.66,0.17c19.24-0.07,38.49-0.15,57.73-0.22
		C1544.74,783.39,1545.15,783.45,1545.56,783.56z"/>
	<path class="st6" d="M1544.31,783.37c-19.24,0.07-38.49,0.15-57.73,0.22c-0.06-76.42-0.13-152.84-0.17-229.25
		c0-0.58,0.3-1.15,0.46-1.73c18.98,0.02,37.97,0.05,56.95,0.07c0.22,1.47,0.62,2.95,0.62,4.42
		C1544.42,632.53,1544.37,707.95,1544.31,783.37z"/>
	<path class="st8" d="M250.79,1389.17c2.96-2.18,6.39-1.28,9.61-1.28c184.79-0.04,369.58-0.04,554.36,0.01
		c3.17,0,6.65-1.15,9.49,1.42c-140.74,0.04-281.49,0.12-422.23,0.12C351.62,1389.44,301.2,1389.26,250.79,1389.17z"/>
</g>
</svg>
